<svg width="120" height="120" viewBox="0 0 120 120" fill="none" xmlns="http://www.w3.org/2000/svg">
<circle cx="60" cy="60" r="59.5" fill="white" stroke="url(#paint0_linear)"/>
<g clip-path="url(#clip0)">
<path d="M88.5949 64.6272C88.4736 64.1168 88.0175 63.7565 87.4928 63.7565C85.9503 63.7565 83.1828 62.9884 80.8425 61.9713V57.0556C80.8425 55.1817 79.318 53.6572 77.4441 53.6572H75.1786V33.2665C75.1786 32.0173 74.1622 31.001 72.913 31.001H38.9295C37.6803 31.001 36.6639 32.0173 36.6639 33.2665V46.8605H33.2656C32.0163 46.8605 31 47.8768 31 49.1261V81.9769C31 83.8508 32.5245 85.3753 34.3984 85.3753H71.1929C72.5254 86.6067 74.1045 87.782 75.9766 88.8508C76.1506 88.9501 76.3444 88.9997 76.5382 88.9997C76.7321 88.9997 76.9258 88.95 77.0999 88.8508C84.9393 84.3756 87.6526 78.0345 88.5482 73.503C89.5164 68.6046 88.633 64.7874 88.5949 64.6272ZM38.9295 33.2665H72.913V53.6572H53.2899L51.3911 48.9104C50.893 47.6651 49.7421 46.8604 48.4591 46.8604H38.9295V33.2665ZM33.2656 81.9769V80.844H39.1556C39.7812 80.844 40.2884 80.3369 40.2884 79.7112C40.2884 79.0856 39.7812 78.5785 39.1556 78.5785H33.2656V49.1261H48.4591C48.8586 49.1261 49.1631 49.4403 49.2877 49.7518L51.4713 55.2107C51.6434 55.6408 52.0599 55.9228 52.5231 55.9228H77.4444C78.069 55.9228 78.5771 56.4309 78.5771 57.0556V60.8109C78.075 60.5 77.6481 60.1844 77.3348 59.8745C76.8935 59.438 76.1832 59.438 75.7418 59.8745C73.8839 61.7116 68.1009 63.7564 65.5835 63.7564C65.059 63.7564 64.6029 64.1167 64.4815 64.6271C64.4434 64.7873 63.5599 68.6045 64.5282 73.5029C65.0817 76.3033 66.3302 79.7946 69.0527 83.1097H34.3984C33.7737 83.1097 33.2656 82.6015 33.2656 81.9769ZM86.3256 73.0636C85.1948 78.7843 81.9035 83.3198 76.5381 86.5537C71.2025 83.3375 67.9172 78.8322 66.7687 73.1536C66.126 69.9758 66.358 67.2587 66.5438 65.9628C69.4665 65.6339 74.0826 63.9836 76.5382 62.1599C78.9943 63.984 83.6119 65.6346 86.5346 65.963C86.7197 67.2418 86.9494 69.9074 86.3256 73.0636Z" fill="#0075FF"/>
<path d="M43.0642 37.7973H68.7782C69.4039 37.7973 69.911 37.2902 69.911 36.6645C69.911 36.0389 69.4039 35.5317 68.7782 35.5317H43.0642C42.4385 35.5317 41.9314 36.0389 41.9314 36.6645C41.9314 37.2902 42.4385 37.7973 43.0642 37.7973Z" fill="#0075FF"/>
<path d="M69.911 41.1958C69.911 40.5701 69.4039 40.063 68.7782 40.063H43.0642C42.4385 40.063 41.9314 40.5701 41.9314 41.1958C41.9314 41.8214 42.4385 42.3286 43.0642 42.3286H68.7782C69.4038 42.3286 69.911 41.8214 69.911 41.1958Z" fill="#0075FF"/>
<path d="M68.7785 44.5942H55.9214C55.2957 44.5942 54.7886 45.1014 54.7886 45.727C54.7886 46.3527 55.2957 46.8598 55.9214 46.8598H68.7785C69.4041 46.8598 69.9112 46.3527 69.9112 45.727C69.9112 45.1014 69.404 44.5942 68.7785 44.5942Z" fill="#0075FF"/>
<path d="M68.7784 49.1255H62.0949C61.4693 49.1255 60.9622 49.6326 60.9622 50.2583C60.9622 50.8839 61.4693 51.3911 62.0949 51.3911H68.7784C69.404 51.3911 69.9112 50.8839 69.9112 50.2583C69.9112 49.6326 69.4039 49.1255 68.7784 49.1255Z" fill="#0075FF"/>
<path d="M80.7698 68.1104C79.8621 68.1104 79.0088 68.4639 78.3669 69.1057L75.2405 72.2322L74.7092 71.7009C74.0674 71.0591 73.214 70.7057 72.3063 70.7057C71.3986 70.7057 70.5453 71.0592 69.9036 71.7009C69.2617 72.3428 68.9082 73.1961 68.9082 74.1038C68.9082 75.0115 69.2617 75.8648 69.9035 76.5066L72.8376 79.4408C73.5001 80.1032 74.3703 80.4343 75.2404 80.4343C76.1104 80.4343 76.9808 80.1031 77.6432 79.4408L83.1726 73.9114C84.4975 72.5865 84.4975 70.4306 83.1726 69.1058C82.5309 68.4639 81.6776 68.1104 80.7698 68.1104ZM81.5707 72.3092L76.0415 77.8386C75.5999 78.2801 74.8814 78.28 74.4398 77.8386L71.5057 74.9044C71.2917 74.6906 71.174 74.4061 71.174 74.1037C71.174 73.8011 71.2918 73.5168 71.5057 73.3029C71.7195 73.0889 72.004 72.9712 72.3064 72.9712C72.6089 72.9712 72.8933 73.089 73.1072 73.3029L74.4395 74.6352C74.6519 74.8476 74.94 74.967 75.2405 74.967C75.5409 74.967 75.8291 74.8476 76.0415 74.6352L79.9689 70.7077C80.1828 70.4937 80.4672 70.376 80.7697 70.376C81.0723 70.376 81.3566 70.4938 81.5705 70.7077C82.0122 71.1493 82.0122 71.8677 81.5707 72.3092Z" fill="#0075FF"/>
<path d="M44.2529 78.5781C43.6273 78.5781 43.1201 79.0853 43.1201 79.7109C43.1201 80.3366 43.6273 80.8437 44.2529 80.8437H44.2537C44.8794 80.8437 45.3862 80.3366 45.3862 79.7109C45.3862 79.0853 44.8786 78.5781 44.2529 78.5781Z" fill="#0075FF"/>
</g>
<defs>
<linearGradient id="paint0_linear" x1="0" y1="0" x2="129.571" y2="14.6174" gradientUnits="userSpaceOnUse">
<stop stop-color="#0075FF"/>
<stop offset="1" stop-color="#0075FF" stop-opacity="0"/>
</linearGradient>
<clipPath id="clip0">
<rect width="58" height="58" fill="white" transform="translate(31 31)"/>
</clipPath>
</defs>
</svg>
