<svg width="120" height="120" viewBox="0 0 120 120" fill="none" xmlns="http://www.w3.org/2000/svg">
<circle cx="60" cy="60" r="59.5" fill="white" stroke="url(#paint0_linear)"/>
<path d="M88.9186 60.2836C88.9185 60.2833 88.9185 60.2832 88.9183 60.2829L77.9677 32.7868C77.7353 32.2026 77.0731 31.9174 76.4888 32.1498C76.4884 32.1499 76.488 32.1501 76.4876 32.1503L32.0623 49.8401C31.8811 49.9184 31.724 50.0433 31.6069 50.2021C31.2374 50.3941 31.004 50.7741 31 51.1904V80.7928C31 81.4216 31.5098 81.9314 32.1386 81.9314H79.9579C80.5867 81.9314 81.0964 81.4216 81.0964 80.7928V64.6254L88.283 61.763C88.8671 61.5301 89.1516 60.8677 88.9186 60.2836ZM78.8193 79.6543H33.2771V52.329H78.8193V79.6543ZM49.9968 50.0575L69.0608 42.4611C70.7622 44.2495 73.1197 45.2659 75.5881 45.2756L77.4895 50.0575H49.9968ZM81.0964 62.1797V51.1904C81.0964 50.5616 80.5867 50.0519 79.9579 50.0519H79.9397L77.5271 43.9925C77.5003 43.9419 77.4691 43.8938 77.4337 43.849C77.3116 43.3006 76.8038 42.9265 76.2439 42.9723C73.9472 43.1817 71.7004 42.2142 70.2745 40.4015C69.9197 39.9635 69.296 39.8547 68.8137 40.1464C68.7596 40.1528 68.706 40.1628 68.6532 40.176L45.3788 49.4439C45.0972 49.5543 44.8719 49.7733 44.7537 50.0519H37.6856L76.2735 34.687L86.3828 60.0711L81.0964 62.1797Z" fill="#0075FF"/>
<path d="M36.3671 71.9683C38.5776 72.6217 40.3074 74.3493 40.9635 76.5589C41.1074 77.0412 41.551 77.3717 42.0542 77.3718C42.1133 77.3681 42.1719 77.3593 42.2295 77.3457C42.2806 77.3602 42.3329 77.3708 42.3855 77.3775H69.7109C69.7578 77.3714 69.8042 77.3619 69.8498 77.3491C70.4186 77.4874 70.9919 77.1386 71.1304 76.5697C71.1308 76.5676 71.1313 76.5656 71.1318 76.5635C71.7862 74.3515 73.5162 72.6215 75.7281 71.9671C76.2645 71.8032 76.5978 71.2686 76.5092 70.7147C76.5244 70.6595 76.5354 70.6031 76.5422 70.5462V61.4378C76.5355 61.3807 76.5241 61.3243 76.508 61.2693C76.5973 60.7152 76.2638 60.1804 75.727 60.0169C73.5151 59.3626 71.7854 57.6319 71.1329 55.4194C70.9681 54.8793 70.4283 54.5451 69.8714 54.6383C69.8187 54.6237 69.7651 54.613 69.7109 54.6064H42.3855C42.3282 54.6133 42.2714 54.6247 42.2159 54.6406C41.6621 54.5524 41.1279 54.8855 40.9635 55.4216C40.3087 57.6332 38.5788 59.3626 36.3671 60.0169C35.8307 60.1808 35.4974 60.7154 35.5861 61.2693C35.5713 61.3246 35.5606 61.3808 35.5542 61.4378V70.5462C35.5607 70.5997 35.5714 70.6527 35.5861 70.7045C35.4927 71.2619 35.8267 71.8025 36.3671 71.9683ZM37.8313 61.9C40.1175 60.9818 41.9295 59.1698 42.8478 56.8836H69.2475C70.1661 59.1698 71.9786 60.9818 74.2651 61.9V70.084C71.9796 71.0032 70.1678 72.8149 69.2486 75.1004H42.8478C41.9285 72.8149 40.1168 71.0032 37.8313 70.084V61.9Z" fill="#0075FF"/>
<path d="M56.0481 72.8233C59.821 72.8233 62.8795 69.7649 62.8795 65.992C62.8795 62.2191 59.821 59.1606 56.0481 59.1606C52.2752 59.1606 49.2168 62.2191 49.2168 65.992C49.2205 69.7633 52.2768 72.8196 56.0481 72.8233ZM56.0481 61.4378C58.5633 61.4378 60.6024 63.4768 60.6024 65.992C60.6024 68.5072 58.5633 70.5462 56.0481 70.5462C53.5329 70.5462 51.4939 68.5072 51.4939 65.992C51.4939 63.4768 53.5329 61.4378 56.0481 61.4378Z" fill="#0075FF"/>
<path d="M43.524 67.6998C44.4671 67.6998 45.2318 66.9352 45.2318 65.992C45.2318 65.0489 44.4671 64.2842 43.524 64.2842C42.5808 64.2842 41.8162 65.0489 41.8162 65.992C41.8162 66.9353 42.5808 67.6998 43.524 67.6998ZM43.524 65.4227C43.8384 65.4227 44.0933 65.6776 44.0933 65.992C44.0933 66.3064 43.8384 66.5613 43.524 66.5613C43.2096 66.5613 42.9547 66.3064 42.9547 65.992C42.9547 65.6776 43.2096 65.4227 43.524 65.4227Z" fill="#0075FF"/>
<path d="M68.5723 67.6998C69.5155 67.6998 70.2802 66.9352 70.2802 65.992C70.2802 65.0489 69.5155 64.2842 68.5723 64.2842C67.6292 64.2842 66.8645 65.0489 66.8645 65.992C66.8645 66.9353 67.6292 67.6998 68.5723 67.6998ZM68.5723 65.4227C68.8867 65.4227 69.1416 65.6776 69.1416 65.992C69.1416 66.3064 68.8867 66.5613 68.5723 66.5613C68.258 66.5613 68.0031 66.3064 68.0031 65.992C68.0031 65.6776 68.258 65.4227 68.5723 65.4227Z" fill="#0075FF"/>
<defs>
<linearGradient id="paint0_linear" x1="0" y1="0" x2="129.571" y2="14.6174" gradientUnits="userSpaceOnUse">
<stop stop-color="#0075FF"/>
<stop offset="1" stop-color="#0075FF" stop-opacity="0"/>
</linearGradient>
</defs>
</svg>
