<svg width="120" height="120" viewBox="0 0 120 120" fill="none" xmlns="http://www.w3.org/2000/svg">
<circle cx="60" cy="60" r="59.5" fill="white" stroke="url(#paint0_linear)"/>
<path d="M82.1715 54.877C80.198 53.8903 76.4976 53.8789 76.3411 53.8789C75.8719 53.8789 75.4915 54.2593 75.4915 54.7285C75.4915 55.1977 75.8719 55.5781 76.3411 55.5781C77.2959 55.5782 80.0682 55.7253 81.4117 56.3969C81.5337 56.458 81.6632 56.4868 81.7909 56.4868C82.1026 56.4868 82.4026 56.3146 82.5515 56.017C82.7614 55.5973 82.5913 55.0869 82.1715 54.877Z" fill="#0075FF"/>
<path d="M86.4072 66.9732L82.8983 65.9707C82.7469 65.9274 82.6411 65.7872 82.6411 65.6296V64.4584C82.9265 64.2606 83.1989 64.0393 83.4534 63.7922C84.687 62.595 85.3664 60.9893 85.3664 59.2706V57.6544L85.7057 56.9759C86.078 56.2311 86.2748 55.3973 86.2748 54.5646V50.1863C86.2748 49.7171 85.8944 49.3367 85.4252 49.3367H77.2493C74.2764 49.3367 71.8576 51.7555 71.8576 54.7284V54.7791C71.8576 55.4715 72.0213 56.1648 72.3309 56.784L72.766 57.6543V59.042C72.766 61.2412 73.8498 63.2145 75.4913 64.4019L75.4916 65.6294C75.4916 65.8187 75.4916 65.8971 74.79 66.0976L73.0779 66.5867L68.1251 64.7858C68.1429 64.5521 68.064 64.3144 67.8936 64.1353L66.3109 62.4726V59.6813C66.4782 59.5435 66.6432 59.4019 66.803 59.2521C68.7996 57.3807 69.9446 54.7385 69.9446 52.0031V49.774C70.5475 48.4621 70.853 47.0738 70.853 45.6441V36.5601C70.853 36.0908 70.4726 35.7104 70.0034 35.7104H57.2854C52.8097 35.7104 49.1685 39.3518 49.1685 43.8274V45.6443C49.1685 47.074 49.474 48.4623 50.0769 49.7742V51.6922C50.0769 54.8681 51.4891 57.7294 53.7106 59.6157V62.4727L52.128 64.1354C51.9575 64.3145 51.8786 64.5522 51.8964 64.7859L46.6691 66.6866C46.2903 66.8244 45.9383 67.011 45.6187 67.237L44.7979 66.8265C47.2414 65.7629 48.0154 64.2671 48.0526 64.1928C48.1722 63.9536 48.1722 63.672 48.0526 63.4329C47.4401 62.2078 47.3659 59.9625 47.3063 58.1584C47.2864 57.5578 47.2676 56.9903 47.2317 56.4851C46.9421 52.4099 43.8441 49.3367 40.0253 49.3367C36.2066 49.3367 33.1085 52.4098 32.819 56.4851C32.783 56.9904 32.7642 57.5579 32.7444 58.1586C32.6848 59.9626 32.6105 62.2077 31.9981 63.4327C31.8785 63.6719 31.8785 63.9535 31.9981 64.1926C32.0353 64.2669 32.8077 65.7598 35.2561 66.8246L32.9761 67.9646C31.7572 68.5745 31 69.7996 31 71.1623V77.4391C31 77.9083 31.3804 78.2887 31.8496 78.2887C32.3188 78.2887 32.6992 77.9083 32.6992 77.4391V71.1623C32.6992 70.4472 33.0965 69.8044 33.736 69.4846L36.5751 68.065L37.5627 69.0036C38.2533 69.6598 39.1391 69.9878 40.0253 69.9878C40.9113 69.9878 41.7976 69.6596 42.488 69.0036L43.4754 68.0652L44.4012 68.528C43.9653 69.2255 43.7179 70.0434 43.7179 70.9001V77.4393C43.7179 77.9085 44.0983 78.2889 44.5675 78.2889C45.0367 78.2889 45.4171 77.9085 45.4171 77.4393V70.9001C45.4171 69.7338 46.1535 68.6823 47.2497 68.2837L52.7611 66.2796L55.0554 69.7212C55.3487 70.1612 55.8187 70.4434 56.3449 70.4955C56.4035 70.5013 56.4619 70.5041 56.5201 70.5041C56.9843 70.5041 57.429 70.3214 57.7613 69.9891L59.161 68.5894V77.4394C59.161 77.9086 59.5414 78.289 60.0106 78.289C60.4799 78.289 60.8603 77.9086 60.8603 77.4394V68.5894L62.26 69.9891C62.5922 70.3215 63.0368 70.5042 63.5012 70.5042C63.5593 70.5042 63.6178 70.5014 63.6763 70.4956C64.2026 70.4435 64.6726 70.1613 64.9659 69.7213L67.2603 66.2798L72.7716 68.2839C73.8677 68.6825 74.6042 69.734 74.6042 70.9004V77.4395C74.6042 77.9087 74.9846 78.2891 75.4538 78.2891C75.923 78.2891 76.3034 77.9087 76.3034 77.4395V70.9004C76.3034 69.7191 75.8341 68.6112 75.0468 67.7918L75.2567 67.7319C75.4684 67.6714 75.7573 67.5886 76.0473 67.4464L78.2165 69.6156V77.4395C78.2165 77.9087 78.5969 78.2891 79.0661 78.2891C79.5354 78.2891 79.9158 77.9087 79.9158 77.4395V69.6156L82.0699 67.4615C82.1844 67.5197 82.3047 67.5689 82.4314 67.605L85.9404 68.6075C86.7413 68.8364 87.3008 69.578 87.3008 70.4111V77.4395C87.3008 77.9087 87.6812 78.2891 88.1504 78.2891C88.6196 78.2891 89 77.9087 89 77.4395V70.4111C89 68.8231 87.9338 67.4095 86.4072 66.9732ZM36.4505 65.4726C34.8613 64.9008 34.0641 64.1384 33.7238 63.7221C33.9558 63.1156 34.1063 62.4209 34.2081 61.6876C34.6767 62.8111 35.4614 63.7701 36.4505 64.4543V65.4726ZM41.3177 67.772C40.593 68.4605 39.4578 68.4604 38.7334 67.7719L37.9432 67.021C38.0766 66.7713 38.1499 66.4881 38.1499 66.1914V65.2858C38.7425 65.471 39.3726 65.5709 40.0256 65.5709C40.6777 65.5709 41.3075 65.4706 41.9012 65.2864L41.9011 66.1913C41.9011 66.4881 41.9742 66.7714 42.1077 67.0213L41.3177 67.772ZM40.0258 63.8717C37.4888 63.8717 35.4249 61.8077 35.4249 59.2708C35.4249 58.8016 35.0445 58.4212 34.5753 58.4212C34.5277 58.4212 34.4812 58.4261 34.4358 58.4336C34.4383 58.3606 34.4407 58.2874 34.4432 58.215C34.4621 57.6308 34.4803 57.079 34.514 56.6057C34.6225 55.0792 35.2325 53.6724 36.2317 52.6445C37.2398 51.6073 38.5871 51.0362 40.0256 51.0362C41.464 51.0362 42.8113 51.6073 43.8195 52.6445C44.8186 53.6724 45.4286 55.0792 45.5372 56.6057C45.5707 57.0789 45.589 57.6306 45.6083 58.2147C45.61 58.2649 45.6117 58.3157 45.6134 58.3662C44.689 56.9421 43.2614 55.8925 41.4169 55.2998C39.7128 54.7523 38.2472 54.7862 38.1853 54.7878C37.9628 54.794 37.7517 54.8872 37.5973 55.0473L36.0644 56.6371C35.7387 56.9749 35.7484 57.5128 36.0862 57.8385C36.424 58.1642 36.9619 58.1543 37.2876 57.8166L38.5631 56.4938C39.6616 56.5475 43.1956 56.9585 44.5701 59.985C44.2242 62.2153 42.3073 63.8717 40.0258 63.8717ZM43.6002 65.4754L43.6003 64.4621C44.5887 63.7817 45.3745 62.8244 45.8434 61.6925C45.9452 62.4241 46.0955 63.1171 46.3271 63.7223C45.9887 64.1346 45.1878 64.9038 43.6002 65.4754ZM51.7761 51.6921V49.5841C51.7761 49.4562 51.7472 49.3299 51.6916 49.2147C51.1449 48.0826 50.8677 46.8813 50.8677 45.6443V43.8275C50.8677 40.2887 53.7468 37.4098 57.2854 37.4098H69.1538V45.6444C69.1538 46.8815 68.8766 48.0827 68.3299 49.2148C68.2743 49.33 68.2454 49.4563 68.2454 49.5842V52.0033C68.2454 54.3042 67.3205 56.4383 65.641 58.0126C65.4313 58.209 65.2137 58.3932 64.9887 58.5648C64.9837 58.5682 64.9789 58.572 64.9741 58.5755C63.4007 59.77 61.4736 60.3506 59.461 60.2202C55.1517 59.9412 51.7761 56.1952 51.7761 51.6921ZM56.5599 68.7874C56.554 68.7933 56.5403 68.8073 56.5125 68.8043C56.4849 68.8016 56.474 68.7854 56.4694 68.7784L53.8271 64.8149L54.6774 63.9214L58.6858 66.6614L56.5599 68.7874ZM60.0108 65.5087L55.4098 62.3638V60.7779C56.6003 61.4214 57.9333 61.8239 59.351 61.9157C59.575 61.9302 59.7976 61.9373 60.0195 61.9373C61.6441 61.9373 63.2076 61.549 64.6117 60.8119V62.3638L60.0108 65.5087ZM63.5522 68.7786C63.5475 68.7856 63.5366 68.8018 63.509 68.8045C63.4812 68.8081 63.4677 68.7934 63.4617 68.7877L61.3357 66.6617L65.3442 63.9217L66.1946 64.8151L63.5522 68.7786ZM79.0661 68.0618L77.1381 66.1338C77.1717 65.981 77.1908 65.8137 77.1907 65.6292L77.1905 65.2706C77.7256 65.4462 78.2895 65.5504 78.873 65.5679C78.9385 65.5699 79.0034 65.5708 79.0686 65.5708C79.7134 65.5708 80.3428 65.4734 80.9419 65.2875V65.6296C80.9419 65.7991 80.9631 65.9651 81.0033 66.1248L79.0661 68.0618ZM82.2701 62.5728C81.3696 63.4467 80.18 63.9082 78.9241 63.8694C76.4654 63.7957 74.4652 61.6301 74.4652 59.0422V57.4539C74.4652 57.3219 74.4345 57.1919 74.3755 57.0739L73.8507 56.0243C73.6584 55.6397 73.5568 55.2092 73.5568 54.7792V54.7286C73.5568 52.6924 75.2133 51.036 77.2493 51.036H84.5756V54.5648C84.5756 55.135 84.4408 55.7061 84.1858 56.2162L83.7569 57.0739C83.6979 57.192 83.6672 57.3219 83.6672 57.4539V59.2707C83.6672 60.5258 83.171 61.6985 82.2701 62.5728Z" fill="#0075FF"/>
<path d="M84.5166 71.1392C84.0474 71.1392 83.667 71.5196 83.667 71.9888V77.4393C83.667 77.9085 84.0474 78.2889 84.5166 78.2889C84.9858 78.2889 85.3662 77.9085 85.3662 77.4393V71.9888C85.3662 71.5197 84.9858 71.1392 84.5166 71.1392Z" fill="#0075FF"/>
<path d="M35.4834 72.2622C35.0142 72.2622 34.6338 72.6426 34.6338 73.1118V77.4393C34.6338 77.9085 35.0142 78.2889 35.4834 78.2889C35.9526 78.2889 36.333 77.9085 36.333 77.4393V73.1118C36.333 72.6427 35.9526 72.2622 35.4834 72.2622Z" fill="#0075FF"/>
<path d="M66.9706 45.9522C63.7572 42.7389 57.0341 43.3532 54.2925 43.7665C53.4289 43.8966 52.8022 44.6274 52.8022 45.5041V47.4614C52.8022 47.9306 53.1826 48.311 53.6519 48.311C54.1211 48.311 54.5015 47.9306 54.5015 47.4614V45.504C54.5015 45.4751 54.5205 45.4504 54.5459 45.4466C55.641 45.2815 57.814 45.0268 60.0655 45.1769C62.7149 45.3533 64.6339 46.0184 65.7691 47.1537C66.1009 47.4855 66.6389 47.4855 66.9706 47.1537C67.3024 46.8219 67.3024 46.2839 66.9706 45.9522Z" fill="#0075FF"/>
<path d="M50.0181 72.9561C49.5489 72.9561 49.1685 73.3365 49.1685 73.8057V77.4394C49.1685 77.9086 49.5489 78.289 50.0181 78.289C50.4873 78.289 50.8677 77.9086 50.8677 77.4394V73.8057C50.8677 73.3366 50.4873 72.9561 50.0181 72.9561Z" fill="#0075FF"/>
<path d="M70.0034 72.9561C69.5342 72.9561 69.1538 73.3365 69.1538 73.8057V77.4394C69.1538 77.9086 69.5342 78.289 70.0034 78.289C70.4726 78.289 70.853 77.9086 70.853 77.4394V73.8057C70.853 73.3366 70.4726 72.9561 70.0034 72.9561Z" fill="#0075FF"/>
<defs>
<linearGradient id="paint0_linear" x1="0" y1="0" x2="129.571" y2="14.6174" gradientUnits="userSpaceOnUse">
<stop stop-color="#0075FF"/>
<stop offset="1" stop-color="#0075FF" stop-opacity="0"/>
</linearGradient>
</defs>
</svg>
