<svg width="120" height="120" viewBox="0 0 120 120" fill="none" xmlns="http://www.w3.org/2000/svg">
<circle cx="60" cy="60" r="59.5" fill="white" stroke="url(#paint0_linear)"/>
<g clip-path="url(#clip0)">
<path d="M88.1504 78.5969H85.481V76.7793H88.1503C88.6195 76.7793 88.9999 76.3989 88.9999 75.9297V72.4109C88.9999 71.9416 88.6195 71.5612 88.1503 71.5612H78.5373V54.7231C78.5373 54.2539 78.1569 53.8735 77.6877 53.8735H69.6935V46.604C69.6935 46.1348 69.3131 45.7544 68.8439 45.7544C68.3747 45.7544 67.9943 46.1348 67.9943 46.604V53.8733H52.0057V37.8848H57.3198V41.917C57.3198 42.5657 58.0375 42.9362 58.5531 42.675L60.0276 41.9286L61.4349 42.669C62.1329 42.8868 62.5479 42.6361 62.6801 41.917V37.8848H67.9941V42.902C67.9941 43.3712 68.3745 43.7516 68.8438 43.7516C69.313 43.7516 69.6934 43.3712 69.6934 42.902V37.0352C69.6934 36.5659 69.313 36.1855 68.8438 36.1855H51.1561C50.6869 36.1855 50.3065 36.5659 50.3065 37.0352V53.8733H42.3123C41.8431 53.8733 41.4627 54.2537 41.4627 54.7229V61.7157C41.4627 62.185 41.8431 62.5654 42.3123 62.5654C42.7815 62.5654 43.1619 62.185 43.1619 61.7157V55.5725H48.476V59.6047C48.6046 60.3172 49.0157 60.5698 49.7094 60.3627L51.184 59.6162L52.5913 60.3566C53.1074 60.6281 53.8365 60.2619 53.8365 59.6047V55.5725H59.1505V71.561H43.1619V65.4189C43.1619 64.9497 42.7815 64.5693 42.3123 64.5693C41.8431 64.5693 41.4627 64.9497 41.4627 65.4189V71.5612H31.8498C31.3806 71.5612 31.0002 71.9416 31.0002 72.4109V75.9297C31.0002 76.3989 31.3806 76.7793 31.8498 76.7793H34.5191V78.5969H31.8496C31.3804 78.5969 31 78.9773 31 79.4465V82.965C31 83.4343 31.3804 83.8147 31.8496 83.8147H57.8057C58.275 83.8147 58.6554 83.4343 58.6554 82.965C58.6554 82.4958 58.275 82.1154 57.8057 82.1154H32.6992V80.2961H87.3008V82.1154H61.5089C61.0397 82.1154 60.6593 82.4958 60.6593 82.965C60.6593 83.4343 61.0397 83.8147 61.5089 83.8147H88.1504C88.6196 83.8147 89 83.4343 89 82.965V79.4465C89 78.9773 88.6196 78.5969 88.1504 78.5969ZM60.981 40.5101L60.4308 40.2206C60.1875 40.0926 59.8969 40.0904 59.6515 40.2145L59.0191 40.5346V37.8851H60.981V40.5101ZM52.1371 58.1978C51.4998 57.791 50.8033 57.7995 50.1752 58.2224V55.5728H52.1371V58.1978ZM83.7818 78.5969H78.4434V76.7793H83.7818V78.5969ZM76.7442 76.7793V78.5969H43.2558V76.7793H76.7442ZM76.8381 71.5612H60.8496V55.5727H66.1636V59.6047C66.2922 60.3172 66.7033 60.5699 67.397 60.3627L68.8716 59.6162L70.2789 60.3566C70.795 60.6281 71.5241 60.262 71.5241 59.6047V55.5727H76.8381V71.5612ZM69.8248 58.1978C69.1873 57.791 68.4909 57.7995 67.8629 58.2224V55.5727H69.8248V58.1978ZM32.6994 73.2605H87.3006V75.0801H32.6994V73.2605ZM36.2182 76.7793H41.5566V78.5969H36.2182V76.7793Z" fill="#0075FF"/>
<path d="M56.4341 69.7417C56.9033 69.7417 57.2837 69.3613 57.2837 68.8921C57.2837 68.4229 56.9033 68.0425 56.4341 68.0425H52.9866C52.5174 68.0425 52.137 68.4229 52.137 68.8921C52.137 69.3613 52.5174 69.7417 52.9866 69.7417H56.4341Z" fill="#0075FF"/>
<path d="M70.6743 68.0425C70.2051 68.0425 69.8247 68.4229 69.8247 68.8921C69.8247 69.3613 70.2051 69.7417 70.6743 69.7417H74.1219C74.5911 69.7417 74.9715 69.3613 74.9715 68.8921C74.9715 68.4229 74.5911 68.0425 74.1219 68.0425H70.6743Z" fill="#0075FF"/>
<path d="M61.8308 50.3545C61.3616 50.3545 60.9812 50.7349 60.9812 51.2041C60.9812 51.6733 61.3616 52.0537 61.8308 52.0537H65.2784C65.7476 52.0537 66.128 51.6733 66.128 51.2041C66.128 50.7349 65.7476 50.3545 65.2784 50.3545H61.8308Z" fill="#0075FF"/>
</g>
<defs>
<linearGradient id="paint0_linear" x1="0" y1="0" x2="129.571" y2="14.6174" gradientUnits="userSpaceOnUse">
<stop stop-color="#0075FF"/>
<stop offset="1" stop-color="#0075FF" stop-opacity="0"/>
</linearGradient>
<clipPath id="clip0">
<rect width="58" height="58" fill="white" transform="translate(31 31)"/>
</clipPath>
</defs>
</svg>
