<svg width="120" height="120" viewBox="0 0 120 120" fill="none" xmlns="http://www.w3.org/2000/svg">
<circle cx="60" cy="60" r="59.5" fill="white" stroke="url(#paint0_linear)"/>
<g clip-path="url(#clip0)">
<path d="M60.3142 51.5615H38.566C38.0968 51.5615 37.7166 51.9419 37.7166 52.411C37.7166 52.8802 38.0968 53.2605 38.566 53.2605H60.3143C60.7836 53.2605 61.1638 52.8801 61.1638 52.411C61.1638 51.9419 60.7836 51.5615 60.3142 51.5615Z" fill="#0075FF"/>
<path d="M60.3142 57.5308H38.566C38.0968 57.5308 37.7166 57.9112 37.7166 58.3803C37.7166 58.8494 38.0968 59.2298 38.566 59.2298H60.3143C60.7836 59.2298 61.1638 58.8494 61.1638 58.3803C61.1638 57.9112 60.7836 57.5308 60.3142 57.5308Z" fill="#0075FF"/>
<path d="M60.3142 63.5H38.566C38.0968 63.5 37.7166 63.8804 37.7166 64.3495C37.7166 64.8186 38.0968 65.199 38.566 65.199H60.3143C60.7836 65.199 61.1638 64.8186 61.1638 64.3495C61.1638 63.8804 60.7836 63.5 60.3142 63.5Z" fill="#0075FF"/>
<path d="M61.1638 70.3192C61.1638 69.85 60.7836 69.4697 60.3143 69.4697H38.566C38.0968 69.4697 37.7166 69.8501 37.7166 70.3192C37.7166 70.7883 38.0968 71.1687 38.566 71.1687H60.3143C60.7836 71.1687 61.1638 70.7884 61.1638 70.3192Z" fill="#0075FF"/>
<path d="M38.566 78.2183C38.0968 78.2183 37.7166 78.5987 37.7166 79.0678C37.7166 79.5369 38.0968 79.9173 38.566 79.9173H49.468C49.9372 79.9173 50.3175 79.5369 50.3175 79.0678C50.3175 78.5987 49.9372 78.2183 49.468 78.2183H38.566Z" fill="#0075FF"/>
<path d="M70.1042 41.5185V38.7619C70.1042 37.7118 69.2499 36.8574 68.1997 36.8574H50.7581C49.708 36.8574 48.8538 37.7118 48.8538 38.7619V41.5185C48.8538 42.5686 49.708 43.4229 50.7581 43.4229H52.231C52.7002 43.4229 53.0805 43.0425 53.0805 42.5734C53.0805 42.1042 52.7002 41.7239 52.231 41.7239H50.7581C50.645 41.7239 50.5529 41.6318 50.5529 41.5186V38.7619C50.5529 38.6487 50.645 38.5565 50.7581 38.5565H68.1997C68.313 38.5565 68.4051 38.6486 68.4051 38.7619V41.5185C68.4051 41.6317 68.313 41.7238 68.1997 41.7238H56.2027C55.7334 41.7238 55.3532 42.1042 55.3532 42.5733C55.3532 43.0425 55.7334 43.4227 56.2027 43.4227H68.1998C69.2499 43.423 70.1042 42.5686 70.1042 41.5185Z" fill="#0075FF"/>
<path d="M76.4563 82.8031C75.9871 82.8031 75.6068 83.1835 75.6068 83.6526V84.7966C75.6068 86.1774 74.4834 87.3009 73.1024 87.3009H35.52C34.1392 87.3009 33.0156 86.1775 33.0156 84.7966V43.9625C33.0156 43.7787 33.0372 43.5983 33.0756 43.4229H40.8108C42.4257 43.4229 43.7395 42.109 43.7395 40.4941V32.759C43.915 32.7206 44.0952 32.6991 44.2791 32.6991H73.1023C74.4832 32.6991 75.6067 33.8225 75.6067 35.2034V46.5136C75.6067 46.9829 75.987 47.3631 76.4562 47.3631C76.9254 47.3631 77.3057 46.9827 77.3057 46.5136V35.2033C77.3058 32.8857 75.4201 31 73.1024 31H44.2792C43.1565 31 42.1008 31.4373 41.3069 32.2311L32.5477 40.9904C31.7538 41.7843 31.3167 42.8398 31.3167 43.9627V84.7967C31.3167 87.1144 33.2022 89 35.52 89H73.1024C75.4201 89 77.3058 87.1143 77.3058 84.7967V83.6527C77.3058 83.1835 76.9255 82.8031 76.4563 82.8031ZM42.0405 33.9005V40.4941C42.0405 41.1722 41.4889 41.7239 40.8108 41.7239H34.2171L42.0405 33.9005Z" fill="#0075FF"/>
<path d="M88.0919 61.3594C88.6882 60.4841 88.8425 59.4044 88.5152 58.3971C88.1879 57.3898 87.4284 56.6071 86.4315 56.2496C85.7702 56.0123 85.3289 55.4052 85.3079 54.7028C85.2758 53.6442 84.7659 52.6799 83.909 52.0574C83.0522 51.4349 81.9774 51.2481 80.961 51.5446C80.2861 51.7415 79.5728 51.5095 79.1428 50.9539C78.4947 50.1162 77.5155 49.6357 76.4563 49.6357C75.3972 49.6357 74.4179 50.1162 73.7697 50.9539C73.3397 51.5096 72.6259 51.7413 71.9516 51.5446C70.9351 51.2478 69.8604 51.4349 69.0034 52.0574C68.1466 52.6799 67.6369 53.6441 67.6047 54.7027C67.5835 55.405 67.1424 56.0121 66.481 56.2494C65.4841 56.607 64.7246 57.3898 64.3974 58.397C64.0701 59.4043 64.2244 60.4841 64.8207 61.3593C65.2163 61.9401 65.2163 62.6905 64.8207 63.2712C64.2244 64.1465 64.0701 65.2262 64.3974 66.2335C64.7246 67.2408 65.4841 68.0236 66.481 68.3812C67.1424 68.6185 67.5837 69.2256 67.6047 69.9279C67.6343 70.9017 68.0805 71.8167 68.8293 72.438C69.3233 72.8481 69.9168 73.1047 70.5379 73.1904V80.925C70.5379 81.5777 70.8919 82.1809 71.4616 82.4991C72.0306 82.8171 72.7301 82.8029 73.2862 82.4605L76.402 80.5424C76.4528 80.511 76.483 80.5252 76.511 80.5424L79.6266 82.4605C80.1825 82.8026 80.8817 82.8173 81.4513 82.499C82.0211 82.1806 82.375 81.5774 82.375 80.9249V73.1902C82.9959 73.1046 83.5894 72.848 84.0834 72.438C84.8323 71.8167 85.2786 70.9018 85.3082 69.9278C85.3293 69.2255 85.7705 68.6183 86.4318 68.3811C87.4288 68.0236 88.1884 67.2407 88.5155 66.2334C88.8428 65.2261 88.6885 64.1464 88.0922 63.2711C87.6962 62.6906 87.6962 61.9402 88.0919 61.3594ZM80.5171 81.0136L77.4014 79.0956C76.8222 78.7391 76.0909 78.7385 75.5111 79.0956L72.3954 81.0135C72.3245 81.0567 72.2369 81.0069 72.2369 80.9249V73.0291C72.821 72.9615 73.4001 73.1991 73.7697 73.6769C74.418 74.5145 75.3972 74.9949 76.4564 74.9949C77.5155 74.9949 78.4947 74.5145 79.1428 73.6769C79.5125 73.199 80.0917 72.9615 80.6757 73.0291V80.9249C80.6757 81.0075 80.587 81.0568 80.5171 81.0136ZM86.6877 64.2281C86.9859 64.6656 87.0629 65.2051 86.8993 65.7085C86.7358 66.212 86.3562 66.6032 85.8578 66.782C84.5345 67.2566 83.652 68.4714 83.6096 69.8766C83.5945 70.3706 83.3773 70.8159 82.9982 71.1306C82.5719 71.4844 81.9946 71.6179 81.437 71.4552C80.0875 71.0614 78.6594 71.5254 77.7989 72.6372C77.475 73.0557 76.9855 73.2959 76.4562 73.2959C75.9269 73.2959 75.4374 73.0558 75.1133 72.6372C74.4564 71.788 73.4685 71.3168 72.4373 71.3168C72.1181 71.3168 71.7945 71.3619 71.4755 71.4551C70.9125 71.6191 70.337 71.4816 69.9141 71.1305C69.5349 70.8158 69.3178 70.3705 69.3029 69.8766C69.2603 68.4714 68.3779 67.2566 67.0544 66.7819C66.5562 66.6031 66.1767 66.212 66.013 65.7085C65.8494 65.2051 65.9265 64.6654 66.2246 64.228C67.0161 63.066 67.0161 61.5647 66.2246 60.4028C65.9265 59.9653 65.8494 59.4256 66.013 58.9221C66.1766 58.4187 66.5562 58.0274 67.0544 57.8487C68.3779 57.374 69.2603 56.1593 69.3029 54.754C69.3189 54.2249 69.5736 53.743 70.0019 53.4319C70.43 53.1207 70.9669 53.0274 71.4754 53.1756C72.8246 53.5694 74.2531 53.1053 75.1133 51.9936C75.4373 51.5749 75.9267 51.3347 76.4562 51.3347C76.9855 51.3347 77.4749 51.5748 77.7989 51.9935C78.6593 53.1053 80.0871 53.5693 81.4369 53.1756C81.9451 53.0272 82.4821 53.1206 82.9104 53.4318C83.3387 53.7429 83.5936 54.2249 83.6094 54.7539C83.652 56.1592 84.5345 57.374 85.8578 57.8486C86.3562 58.0273 86.7357 58.4185 86.8993 58.922C87.0629 59.4254 86.9859 59.9652 86.6877 60.4026C85.896 61.5646 85.896 63.0661 86.6877 64.2281Z" fill="#0075FF"/>
<path d="M76.4564 55.1948C72.5303 55.1948 69.3362 58.3889 69.3362 62.315C69.3362 66.2411 72.5303 69.4352 76.4564 69.4352C80.3823 69.4352 83.5764 66.2411 83.5764 62.315C83.5764 58.3889 80.3823 55.1948 76.4564 55.1948ZM76.4564 67.7362C73.4671 67.7362 71.0352 65.3043 71.0352 62.3151C71.0352 59.326 73.4671 56.8939 76.4564 56.8939C79.4456 56.8939 81.8774 59.3258 81.8774 62.3151C81.8774 65.3044 79.4455 67.7362 76.4564 67.7362Z" fill="#0075FF"/>
</g>
<defs>
<linearGradient id="paint0_linear" x1="0" y1="0" x2="129.571" y2="14.6174" gradientUnits="userSpaceOnUse">
<stop stop-color="#0075FF"/>
<stop offset="1" stop-color="#0075FF" stop-opacity="0"/>
</linearGradient>
<clipPath id="clip0">
<rect width="58" height="58" fill="white" transform="translate(31 31)"/>
</clipPath>
</defs>
</svg>
