<svg width="24" height="52" viewBox="0 0 24 52" fill="none" xmlns="http://www.w3.org/2000/svg">
<path opacity="0.4" d="M8.20181 13.1907L4.50258 13.5178C3.67241 13.5178 2.99933 12.8382 2.99933 11.9999C2.99933 11.1617 3.67241 10.482 4.50258 10.482L8.20181 10.8092C8.85308 10.8092 9.38107 11.3423 9.38107 11.9999C9.38107 12.6586 8.85308 13.1907 8.20181 13.1907Z" fill="#0075FF"/>
<path d="M20.6241 13.1304C20.5662 13.1888 20.3502 13.4355 20.1473 13.6404C18.9637 14.9237 15.8732 17.0221 14.2565 17.6643C14.011 17.7667 13.3903 17.9848 13.0576 18.0002C12.7401 18.0002 12.4369 17.9264 12.1478 17.781C11.7867 17.5773 11.4987 17.2556 11.3394 16.8767C11.238 16.6145 11.0787 15.8269 11.0787 15.8126C10.9205 14.9523 10.8344 13.5534 10.8344 12.0069C10.8344 10.5352 10.9205 9.19356 11.0503 8.31895C11.0645 8.30353 11.2238 7.32648 11.3973 6.99162C11.7147 6.37917 12.3354 6.00024 12.9998 6.00024H13.0576C13.4907 6.01456 14.4005 6.39459 14.4005 6.40781C15.931 7.05 18.9484 9.04706 20.1615 10.3744C20.1615 10.3744 20.5041 10.7159 20.6524 10.9285C20.8837 11.2347 20.9993 11.6136 20.9993 11.9925C20.9993 12.4155 20.8695 12.8088 20.6241 13.1304Z" fill="#0075FF"/>
<path opacity="0.4" d="M15.7968 41.1907L19.4961 41.5178C20.3262 41.5178 20.9993 40.8382 20.9993 39.9999C20.9993 39.1617 20.3262 38.482 19.4961 38.482L15.7968 38.8092C15.1456 38.8092 14.6176 39.3423 14.6176 39.9999C14.6176 40.6586 15.1456 41.1907 15.7968 41.1907Z" fill="#0075FF"/>
<path d="M3.37461 41.1304C3.43242 41.1888 3.64842 41.4355 3.85133 41.6404C5.03495 42.9237 8.12546 45.0221 9.74217 45.6643C9.98762 45.7667 10.6083 45.9848 10.9411 46.0002C11.2585 46.0002 11.5618 45.9264 11.8509 45.781C12.212 45.5773 12.5 45.2556 12.6592 44.8767C12.7607 44.6145 12.9199 43.8269 12.9199 43.8126C13.0781 42.9523 13.1643 41.5534 13.1643 40.0069C13.1643 38.5352 13.0781 37.1936 12.9483 36.319C12.9341 36.3035 12.7749 35.3265 12.6014 34.9916C12.284 34.3792 11.6632 34.0002 10.9989 34.0002H10.9411C10.508 34.0146 9.59817 34.3946 9.59817 34.4078C8.06764 35.05 5.05022 37.0471 3.83715 38.3744C3.83715 38.3744 3.49461 38.7159 3.34624 38.9285C3.11497 39.2347 2.99934 39.6136 2.99934 39.9925C2.99934 40.4155 3.12916 40.8088 3.37461 41.1304Z" fill="#0075FF"/>
</svg>
