<svg width="75" height="74" viewBox="0 0 75 74" fill="none" xmlns="http://www.w3.org/2000/svg">
<g clip-path="url(#clip0)">
<path d="M8.5874 58.9418H17.8879V62.9855H8.5874V58.9418Z" fill="#0075FF"/>
<path d="M36.0845 3.03272H15.7435C15.133 3.03114 14.5644 3.34311 14.2374 3.85884L1.66553 23.5806H36.0845V3.03272Z" fill="#0075FF"/>
<path d="M60.7626 3.85884C60.4357 3.34311 59.867 3.03114 59.2565 3.03272H38.9155V23.5806H73.3345L60.7626 3.85884Z" fill="#0075FF"/>
<path d="M50.289 26.4113V47.3643C50.289 47.9448 49.9344 48.4669 49.3942 48.6801C48.854 48.8942 48.238 48.7559 47.8407 48.3326L45.082 45.3899L42.3248 48.3318C42.0571 48.6177 41.6835 48.7796 41.2918 48.7796C40.9008 48.7796 40.5273 48.6177 40.2595 48.3318L37.5008 45.3891L34.7421 48.3318C34.4743 48.6177 34.1007 48.7796 33.709 48.7796C33.3181 48.7796 32.9445 48.6177 32.6768 48.3318L29.918 45.3891L27.1585 48.3326C26.7612 48.7559 26.146 48.8942 25.6058 48.6801C25.0656 48.4669 24.711 47.9448 24.711 47.3643V26.4113H0.5V69.2865C0.50079 70.2721 1.30006 71.0714 2.28571 71.073H72.7143C73.6999 71.0714 74.4992 70.2721 74.5 69.2865V26.4113H50.289ZM20.7186 64.4009C20.7186 65.182 20.0852 65.8162 19.3033 65.8162H7.17213C6.39024 65.8162 5.75683 65.182 5.75683 64.4009V57.5265C5.75683 56.7447 6.39024 56.1112 7.17213 56.1112H19.3033C20.0852 56.1112 20.7186 56.7447 20.7186 57.5265V64.4009ZM35.4781 64.1987H26.1776C25.3957 64.1987 24.7623 63.5645 24.7623 62.7834C24.7623 62.0015 25.3957 61.3681 26.1776 61.3681H35.4781C36.26 61.3681 36.8934 62.0015 36.8934 62.7834C36.8934 63.5645 36.26 64.1987 35.4781 64.1987ZM44.5765 58.9418H26.1776C25.3957 58.9418 24.7623 58.3076 24.7623 57.5265C24.7623 56.7447 25.3957 56.1112 26.1776 56.1112H44.5765C45.3584 56.1112 45.9918 56.7447 45.9918 57.5265C45.9918 58.3076 45.3584 58.9418 44.5765 58.9418Z" fill="#0075FF"/>
<path d="M27.5415 43.7858L28.8857 42.3523C29.1535 42.0664 29.527 41.9045 29.918 41.9045C30.3089 41.9045 30.6833 42.0664 30.9502 42.3523L33.7097 45.2943L36.4685 42.3523C36.7362 42.0672 37.1098 41.9053 37.5015 41.9053C37.8925 41.9053 38.266 42.0672 38.5338 42.3523L41.2925 45.2951L44.0504 42.3523C44.3182 42.0672 44.6918 41.9053 45.0835 41.9053C45.4744 41.9053 45.848 42.0672 46.1157 42.3523L47.4592 43.785V26.4113H27.5415V43.7858Z" fill="#0075FF"/>
</g>
<defs>
<clipPath id="clip0">
<rect width="74" height="74" fill="white" transform="translate(0.5)"/>
</clipPath>
</defs>
</svg>
