<svg width="75" height="74" viewBox="0 0 75 74" fill="none" xmlns="http://www.w3.org/2000/svg">
<g clip-path="url(#clip0)">
<path d="M58.8305 32.1883C58.295 31.1173 58.729 29.8152 59.8 29.2796C60.8711 28.7439 62.1732 29.1783 62.7086 30.2491L65 34.832H73.6718L67.1971 21.8825C65.842 19.1721 63.1176 17.4883 60.0871 17.4883H51.375V34.832H60.1524L58.8305 32.1883Z" fill="#0075FF"/>
<path d="M15.6758 68.0742C19.2678 68.0742 22.1797 65.1623 22.1797 61.5703C22.1797 57.9783 19.2678 55.0664 15.6758 55.0664C12.0838 55.0664 9.17188 57.9783 9.17188 61.5703C9.17188 65.1623 12.0838 68.0742 15.6758 68.0742Z" fill="#0075FF"/>
<path d="M59.3242 68.0742C62.9162 68.0742 65.8281 65.1623 65.8281 61.5703C65.8281 57.9783 62.9162 55.0664 59.3242 55.0664C55.7322 55.0664 52.8203 57.9783 52.8203 61.5703C52.8203 65.1623 55.7322 68.0742 59.3242 68.0742Z" fill="#0075FF"/>
<path d="M15.8203 27.8799V42.0586H21.6016V38.4453C21.6016 37.248 22.5722 36.2773 23.7695 36.2773C24.9668 36.2773 25.9375 37.248 25.9375 38.4453V42.0586H31.7188V27.8799L23.7695 21.0663L15.8203 27.8799ZM27.3828 29.7734C27.3828 30.9707 26.4121 31.9414 25.2148 31.9414H22.3242C21.1269 31.9414 20.1562 30.9707 20.1562 29.7734C20.1562 28.5761 21.1269 27.6055 22.3242 27.6055H25.2148C26.4121 27.6055 27.3828 28.5761 27.3828 29.7734Z" fill="#0075FF"/>
<path d="M39.0898 5.92578H8.44922C4.06602 5.92578 0.5 9.4918 0.5 13.875V60.125C0.5 61.3223 1.47067 62.293 2.66797 62.293H4.86268C4.84678 62.0538 4.83594 61.8134 4.83594 61.5703C4.83594 55.5932 9.69869 50.7305 15.6758 50.7305C21.6529 50.7305 26.5156 55.5932 26.5156 61.5703C26.5156 61.8134 26.5046 62.0538 26.4889 62.293H44.8711C46.0684 62.293 47.0391 61.3223 47.0391 60.125V13.875C47.0391 9.4918 43.473 5.92578 39.0898 5.92578ZM39.1461 31.3907C38.7172 31.891 38.1099 32.1478 37.499 32.1479C36.9996 32.1479 36.498 31.9764 36.0891 31.6259L36.0547 31.5964V44.2266C36.0547 45.4239 35.084 46.3945 33.8867 46.3945H13.6523C12.455 46.3945 11.4844 45.4239 11.4844 44.2266V31.5964L11.45 31.6259C10.5412 32.4052 9.17231 32.3 8.39314 31.3907C7.61383 30.4816 7.71919 29.1131 8.62829 28.3339L22.3588 16.5649C23.1706 15.869 24.3686 15.869 25.1804 16.5649L38.9109 28.3339C39.82 29.1131 39.9252 30.4818 39.1461 31.3907Z" fill="#0075FF"/>
<path d="M66.5508 43.5039H74.5V39.168H51.375V54.2109C53.3562 52.0723 56.1859 50.7305 59.3242 50.7305C65.3013 50.7305 70.1641 55.5932 70.1641 61.5703C70.1641 61.8134 70.1531 62.0538 70.1373 62.293H72.332C73.5293 62.293 74.5 61.3223 74.5 60.125V47.8398H66.5508C65.3535 47.8398 64.3828 46.8692 64.3828 45.6719C64.3828 44.4746 65.3535 43.5039 66.5508 43.5039Z" fill="#0075FF"/>
</g>
<defs>
<clipPath id="clip0">
<rect width="74" height="74" fill="white" transform="translate(0.5)"/>
</clipPath>
</defs>
</svg>
