<svg width="75" height="74" viewBox="0 0 75 74" fill="none" xmlns="http://www.w3.org/2000/svg">
<g clip-path="url(#clip0)">
<path d="M63.1087 0.00390703C63.0231 0.00602859 62.9379 0.0166364 62.8543 0.0355672L11.5387 13.0913C10.9554 13.2258 10.5384 13.7397 10.5269 14.3381V61.6261H29.1052V42.532H45.8688V61.6522H64.4471V1.27586C64.4288 0.555023 63.8296 -0.014371 63.1087 0.00390703ZM23.8959 36.2457H17.5639V29.9071H23.9025L23.8959 36.2457ZM23.8959 25.0569H17.5639V18.7053H23.9025L23.8959 25.0569ZM35.0651 36.2457H28.7266V29.9071H35.0651V36.2457ZM35.0651 25.0569H28.7266V18.7053H35.0651V25.0569ZM46.2474 36.2457H39.9088V29.9071H46.2474V36.2457ZM46.2474 25.0439H39.9088V18.7053H46.2474V25.0439ZM57.4166 36.2326H51.078V29.8941H57.4166V36.2326ZM57.4166 25.0439H51.078V18.7053H57.4166V25.0439Z" fill="#0075FF"/>
<path d="M65.4132 63.604H65.3871H9.5868C4.58009 63.6326 0.528559 67.6843 0.5 72.6908C0.5 73.4118 1.08457 73.9964 1.80558 73.9964H73.1944C73.9154 73.9964 74.5 73.4118 74.5 72.6908C74.4714 67.6843 70.4199 63.6326 65.4132 63.604Z" fill="#0075FF"/>
</g>
<defs>
<clipPath id="clip0">
<rect width="74" height="74" fill="white" transform="translate(0.5)"/>
</clipPath>
</defs>
</svg>
