<svg width="24" height="24" viewBox="0 0 24 24" fill="none" xmlns="http://www.w3.org/2000/svg">
<path d="M12.0073 7.91646C11.8664 7.91646 11.727 7.92365 11.5896 7.93772C11.4522 7.95179 11.3168 7.97264 11.1836 8.00001C11.0505 8.02738 10.9197 8.06127 10.7915 8.10128L10.4153 8.23941L10.0571 8.41236L9.71914 8.61802L9.40333 8.85423L9.11192 9.11895L8.84695 9.41011L8.61048 9.72556L8.40456 10.0632L8.23151 10.421C8.17949 10.5434 8.13322 10.6688 8.09317 10.7969C8.05312 10.925 8.01922 11.0557 7.9918 11.1887C7.96438 11.3217 7.94353 11.457 7.92941 11.5943C7.91529 11.7315 7.9082 11.8708 7.9082 12.0116C7.9082 12.1524 7.91539 12.2917 7.92941 12.4289C7.94335 12.5651 7.96417 12.7005 7.9918 12.8345C8.01922 12.9681 8.05312 13.0983 8.09317 13.2264C8.13322 13.3544 8.17944 13.4798 8.23151 13.6022L8.40456 13.96L8.61048 14.2976L8.84695 14.6131L9.11192 14.9043L9.40333 15.169L9.71914 15.4052L10.0571 15.6109L10.4153 15.7838L10.7915 15.922L11.1836 16.0232C11.3178 16.0508 11.4533 16.0716 11.5896 16.0856C11.7284 16.0997 11.8678 16.1068 12.0073 16.1068C12.1483 16.1068 12.2877 16.0996 12.425 16.0856C12.5613 16.0716 12.6968 16.0508 12.831 16.0232L13.2232 15.922L13.5994 15.7838L13.9575 15.6109L14.2955 15.4052L14.6113 15.169L14.9028 14.9043L15.1678 14.6131L15.4042 14.2976L15.6102 13.96L15.7832 13.6022L15.9216 13.2264C15.9616 13.0983 15.9955 12.9675 16.0229 12.8345L16.0853 12.4289C16.0994 12.2916 16.1066 12.1523 16.1066 12.0115C16.1066 11.8707 16.0994 11.7315 16.0853 11.5942C16.0714 11.4581 16.0506 11.3227 16.0229 11.1886C15.9955 11.0551 15.9616 10.925 15.9216 10.7968L15.7832 10.4209L15.6102 10.0632L15.4042 9.7255L15.1678 9.41006L14.9028 9.1189L14.6113 8.85418L14.2955 8.61797L13.9575 8.41231L13.5994 8.23936L13.2232 8.10122L12.831 7.99996L12.425 7.93767C12.2862 7.9235 12.1468 7.9164 12.0073 7.91641V7.91646ZM12.0073 9.32995C12.1005 9.32995 12.1925 9.33457 12.2831 9.34371L12.5501 9.38412L12.8081 9.44985L13.055 9.53956L13.2899 9.65202L13.5107 9.78579L13.7171 9.93969L13.9074 10.1123L14.0802 10.3024L14.2343 10.5087L14.3682 10.7298L14.4807 10.9644C14.5144 11.0448 14.5444 11.1271 14.5705 11.2112C14.5966 11.2954 14.6185 11.3814 14.6362 11.469C14.654 11.5566 14.6671 11.6458 14.6767 11.7363L14.6904 12.0119C14.6904 12.1049 14.6858 12.1969 14.6767 12.2875C14.6675 12.378 14.6541 12.4672 14.6362 12.5547C14.6184 12.6423 14.5964 12.7283 14.5705 12.8125L14.4807 13.0593L14.3682 13.294L14.2343 13.515L14.0802 13.7213L13.9074 13.9114L13.7171 14.0841L13.5107 14.238L13.2899 14.3717L13.055 14.4842L12.8081 14.5739L12.5501 14.6396L12.2831 14.68C12.1914 14.6892 12.0994 14.6938 12.0073 14.6938C11.9152 14.6938 11.8231 14.6892 11.7314 14.68L11.4644 14.6396C11.3767 14.6219 11.2907 14.5999 11.2064 14.5739L10.9594 14.4842L10.7246 14.3717L10.5038 14.238L10.2974 14.0841L10.107 13.9114L9.93425 13.7213L9.7802 13.515L9.64628 13.294L9.53382 13.0593L9.44395 12.8125L9.37822 12.5547L9.33781 12.2875C9.32862 12.1959 9.32403 12.1039 9.32405 12.0119C9.32403 11.9198 9.32862 11.8279 9.33781 11.7363C9.3469 11.6458 9.36041 11.5566 9.37822 11.469C9.39587 11.3821 9.41782 11.2961 9.44401 11.2113L9.53387 10.9645L9.64633 10.7298L9.78025 10.5087L9.9343 10.3025L10.1071 10.1124L10.2974 9.93974L10.5038 9.78584L10.7246 9.65207L10.9595 9.53961C11.0403 9.50567 11.1227 9.47573 11.2065 9.4499L11.4645 9.38417C11.5522 9.36641 11.6414 9.35285 11.7315 9.34376C11.8232 9.33458 11.9153 9.32998 12.0074 9.33L12.0073 9.32995Z" fill="url(#paint0_radial)"/>
<path d="M16.2726 6.75156C16.24 6.75156 16.2075 6.75321 16.1751 6.75649C16.1427 6.75976 16.1105 6.76466 16.0786 6.77117C16.0467 6.77768 16.0152 6.78578 15.9841 6.79546C15.953 6.80514 15.9224 6.81639 15.8924 6.82915C15.8624 6.84192 15.8331 6.8562 15.8046 6.87192C15.776 6.88762 15.7482 6.90474 15.7214 6.92322C15.6945 6.94173 15.6686 6.96157 15.6437 6.98269C15.6188 7.00378 15.595 7.02611 15.5723 7.0496C15.5496 7.0731 15.5281 7.09773 15.5079 7.12339C15.4877 7.14905 15.4687 7.17572 15.4512 7.20329C15.4336 7.23084 15.4174 7.25925 15.4026 7.28843C15.3879 7.31763 15.3745 7.34755 15.3627 7.37809C15.3509 7.40862 15.3407 7.43973 15.332 7.47129C15.3233 7.50285 15.3161 7.53483 15.3106 7.56711C15.3051 7.59938 15.3012 7.63191 15.2989 7.66457C15.2972 7.68771 15.2964 7.71091 15.2964 7.7341C15.2964 7.76688 15.298 7.79963 15.3013 7.83224C15.3045 7.86483 15.3094 7.89724 15.3158 7.92934C15.3223 7.96144 15.3304 7.9932 15.34 8.02449C15.3496 8.0558 15.3608 8.08659 15.3735 8.11677C15.3861 8.14696 15.4003 8.17649 15.4159 8.20525C15.4315 8.234 15.4485 8.26196 15.4669 8.289C15.4853 8.31603 15.505 8.34211 15.526 8.36716C15.5469 8.39222 15.5691 8.41622 15.5925 8.43905C15.6158 8.46187 15.6403 8.4835 15.6658 8.50385C15.6913 8.52423 15.7178 8.5433 15.7452 8.56101C15.7726 8.57871 15.8009 8.59503 15.8299 8.60989C15.8589 8.62476 15.8886 8.63817 15.9189 8.65005C15.9492 8.66192 15.9801 8.67225 16.0115 8.68101C16.0429 8.68976 16.0746 8.69693 16.1067 8.70248C16.1388 8.70806 16.1711 8.71201 16.2035 8.71434C16.2265 8.71598 16.2496 8.7168 16.2726 8.71681C16.3052 8.71682 16.3377 8.71519 16.3701 8.71193C16.4025 8.70865 16.4347 8.70375 16.4666 8.69724C16.4985 8.69074 16.53 8.68263 16.5611 8.67295C16.5922 8.66327 16.6228 8.65203 16.6528 8.63927C16.6827 8.62651 16.7121 8.61225 16.7406 8.59654C16.7692 8.58083 16.797 8.56369 16.8238 8.54519C16.8507 8.5267 16.8766 8.50687 16.9015 8.48578C16.9264 8.46467 16.9502 8.44232 16.9729 8.41882C16.9956 8.39532 17.0171 8.37069 17.0373 8.34503C17.0575 8.31936 17.0764 8.29269 17.094 8.26512C17.1116 8.23756 17.1278 8.20913 17.1426 8.17993C17.1573 8.15073 17.1706 8.12081 17.1825 8.09027C17.1942 8.05974 17.2045 8.02864 17.2132 7.99707C17.2219 7.96551 17.229 7.93353 17.2346 7.90125C17.2401 7.86898 17.244 7.83645 17.2463 7.80379C17.248 7.78065 17.2488 7.75746 17.2488 7.73426C17.2488 7.7015 17.2472 7.66877 17.2439 7.63618C17.2407 7.60359 17.2358 7.57118 17.2293 7.53907C17.2229 7.50697 17.2148 7.47521 17.2052 7.44392C17.1956 7.41262 17.1844 7.38182 17.1717 7.35164C17.159 7.32146 17.1449 7.29193 17.1293 7.26317C17.1137 7.23441 17.0966 7.20646 17.0783 7.17941C17.0599 7.15237 17.0401 7.12627 17.0192 7.1012C16.9982 7.07614 16.976 7.05215 16.9527 7.02931C16.9294 7.00649 16.9049 6.98487 16.8794 6.96451C16.8539 6.94415 16.8274 6.9251 16.8 6.90741C16.7726 6.8897 16.7443 6.87338 16.7153 6.85852C16.6863 6.84365 16.6566 6.83025 16.6263 6.81836C16.5959 6.8065 16.565 6.79616 16.5337 6.7874C16.5023 6.77863 16.4706 6.77145 16.4385 6.76588C16.4064 6.76032 16.3741 6.75638 16.3416 6.75407C16.3186 6.75243 16.2956 6.75161 16.2726 6.75161V6.75156Z" fill="url(#paint1_radial)"/>
<path d="M11.23 4.00015C10.7841 3.99943 10.3863 4.00128 10.0289 4.00631L9.07066 4.03199C8.78679 4.04431 8.53599 4.06038 8.31087 4.08118C8.19831 4.09155 8.09211 4.10316 7.99147 4.11594C7.89569 4.12802 7.80017 4.14207 7.70498 4.1581C7.61434 4.17351 7.52833 4.19015 7.44586 4.20822C7.36339 4.2263 7.28462 4.24581 7.20862 4.26676C7.13433 4.28725 7.06061 4.30978 6.98756 4.33434C6.91597 4.35848 6.84614 4.38405 6.77717 4.41137C6.63924 4.466 6.5047 4.52732 6.36616 4.59602C6.25955 4.64891 6.16106 4.70247 6.0675 4.75917C5.97394 4.81586 5.88531 4.87573 5.79853 4.94095C5.70915 5.00844 5.62301 5.0801 5.54039 5.1557C5.45401 5.23437 5.36579 5.32089 5.27413 5.41759C5.15895 5.53841 5.05887 5.65108 4.97003 5.76164C4.92561 5.81689 4.88402 5.87153 4.84484 5.92647C4.80609 5.98062 4.76905 6.03597 4.73377 6.09244C4.69885 6.14841 4.66578 6.20541 4.63414 6.26405C4.60202 6.32371 4.57166 6.38429 4.5431 6.44573C4.48466 6.57123 4.43013 6.70639 4.3757 6.85726C4.33531 6.96879 4.29915 7.08181 4.26729 7.19607C4.23479 7.31284 4.20588 7.43501 4.1801 7.56713C4.15432 7.69926 4.13183 7.84135 4.11206 7.99848C4.09076 8.17072 4.07374 8.34347 4.06102 8.51656C4.04664 8.70687 4.03473 8.91628 4.02497 9.14936L4.00186 9.92434L3.98943 10.869L3.98584 12.0109L3.99637 13.6715L4.02923 14.9296L4.05455 15.421L4.08618 15.8282C4.09632 15.938 4.10901 16.0475 4.12423 16.1566C4.1381 16.2536 4.15299 16.3384 4.16901 16.4119C4.20152 16.5612 4.23996 16.7091 4.28424 16.8553C4.32664 16.9953 4.37513 17.1334 4.42956 17.2692C4.48307 17.4022 4.54161 17.5305 4.60529 17.6539C4.66896 17.7774 4.73777 17.896 4.81172 18.0099C4.88566 18.1239 4.96474 18.2332 5.04916 18.3378C5.13349 18.4424 5.22318 18.5425 5.31788 18.6379C5.41273 18.7334 5.51276 18.8243 5.61818 18.9106C5.72485 18.998 5.83573 19.0801 5.95042 19.1566C6.05687 19.2278 6.16219 19.2929 6.26828 19.3528C6.37438 19.4126 6.48139 19.4669 6.59138 19.5162C6.70138 19.5656 6.81414 19.61 6.93194 19.6499C7.04974 19.6899 7.17247 19.7254 7.30218 19.757C7.4319 19.7885 7.56921 19.8162 7.71453 19.8403C7.85985 19.8644 8.01519 19.8851 8.18116 19.9029C8.34712 19.9208 8.52418 19.9355 8.71443 19.9478C8.90469 19.9601 9.10804 19.97 9.32654 19.9779C9.66407 19.9901 10.175 19.9973 10.7642 20L12.6716 19.9961L14.4779 19.9708L15.1646 19.9515L15.612 19.9285C15.7081 19.9207 15.802 19.9115 15.8927 19.9006C15.9834 19.8898 16.0729 19.8774 16.16 19.8634C16.247 19.8493 16.3322 19.8336 16.4158 19.8161C16.4985 19.7989 16.5808 19.7797 16.6625 19.7584C16.7435 19.7379 16.8233 19.7145 16.9022 19.6897C16.9812 19.6649 17.0594 19.6381 17.1371 19.6094C17.2152 19.5804 17.2926 19.5496 17.3693 19.5169C17.4464 19.484 17.5235 19.4489 17.6009 19.4116C17.7196 19.3544 17.8152 19.3067 17.8992 19.2601C17.9782 19.2168 18.0542 19.1684 18.1269 19.1151C18.1986 19.0623 18.2699 19.0023 18.352 18.9266C18.4342 18.8509 18.5273 18.7597 18.6426 18.6443C18.7439 18.5431 18.8293 18.4551 18.903 18.375C18.9767 18.2949 19.0388 18.2229 19.0932 18.1535C19.1451 18.0876 19.1934 18.019 19.238 17.948C19.2815 17.8786 19.3216 17.8067 19.3624 17.7268C19.4238 17.6066 19.4785 17.4954 19.5274 17.388C19.5749 17.2845 19.6183 17.1792 19.6575 17.0723C19.6961 16.9662 19.7296 16.8583 19.7577 16.749C19.7867 16.6366 19.8116 16.5178 19.8332 16.3876C19.8548 16.2574 19.873 16.1157 19.8888 15.9574C19.9046 15.7991 19.9181 15.6242 19.9299 15.4277L19.9612 14.768L19.9881 13.9476L20.0073 13.0335L20.0147 12.0778L19.9976 10.2007L19.9746 9.35989L19.9433 8.638L19.9043 8.0752C19.8901 7.91858 19.8748 7.79523 19.8586 7.71184C19.8406 7.6197 19.8205 7.52798 19.7984 7.43675C19.7768 7.34799 19.7531 7.25976 19.7272 7.17214C19.7021 7.08678 19.6747 7.00208 19.6452 6.91811C19.616 6.83518 19.5851 6.75399 19.5528 6.67455C19.5204 6.59511 19.4854 6.51752 19.4489 6.44157C19.4125 6.36563 19.3743 6.29153 19.3342 6.21912C19.2941 6.14672 19.2523 6.07611 19.2086 6.00725C19.1649 5.93839 19.1194 5.87127 19.072 5.80595C19.0248 5.74084 18.9757 5.67722 18.9246 5.61518C18.8737 5.55349 18.821 5.49341 18.7663 5.43505C18.7118 5.37675 18.6554 5.32021 18.5972 5.26549C18.539 5.21075 18.4791 5.15775 18.4173 5.1065C18.3552 5.05509 18.2916 5.00561 18.2265 4.95815C18.1606 4.9102 18.0934 4.86428 18.0248 4.82043C17.9552 4.77596 17.8843 4.73355 17.8123 4.69328C17.7389 4.65234 17.6644 4.6135 17.5889 4.57682C17.4635 4.51587 17.3475 4.46179 17.2337 4.41383C17.1218 4.36623 17.0077 4.32396 16.8918 4.28715C16.7752 4.25043 16.6539 4.21896 16.5204 4.19179C16.3869 4.16463 16.2413 4.14198 16.0765 4.12272C15.9117 4.10347 15.7277 4.08791 15.5173 4.07497C15.3069 4.06203 15.0702 4.05186 14.7999 4.04364L13.8815 4.0231L12.719 4.00939L11.2305 4.00025L11.23 4.00015ZM12.003 5.4124L14.1497 5.42462L14.9595 5.44023C15.1825 5.4465 15.3527 5.45384 15.4524 5.46231C15.5824 5.47325 15.7061 5.48696 15.8245 5.50339C15.9381 5.51908 16.0511 5.53859 16.1634 5.56188C16.2712 5.58448 16.3741 5.61015 16.4725 5.63911C16.571 5.66808 16.665 5.70053 16.7552 5.73642C16.8454 5.77232 16.9317 5.81181 17.0147 5.85504C17.0971 5.89796 17.1772 5.94518 17.2545 5.99652C17.3316 6.04761 17.4058 6.10266 17.4779 6.16197C17.55 6.22128 17.6199 6.28485 17.6882 6.35284C17.7602 6.42458 17.8266 6.49765 17.8879 6.57303C17.9489 6.64795 18.0054 6.72647 18.057 6.80817C18.1092 6.89103 18.1562 6.97704 18.1978 7.06569C18.2403 7.15607 18.2785 7.25158 18.3128 7.3531C18.3471 7.45462 18.3777 7.56251 18.4048 7.67779C18.4331 7.80002 18.4568 7.92326 18.4759 8.04726C18.4965 8.17872 18.514 8.31891 18.5289 8.46901C18.5438 8.61911 18.5561 8.77917 18.5663 8.95042C18.5744 9.08779 18.5815 9.26906 18.5875 9.48314L18.6026 10.2131L18.6141 12.0011L18.601 13.7875L18.5853 14.5153L18.5636 15.0447C18.5486 15.2926 18.5328 15.5009 18.5139 15.6823C18.5044 15.773 18.4942 15.8569 18.4828 15.9356C18.4721 16.01 18.4594 16.0841 18.4448 16.1578C18.4315 16.225 18.416 16.2918 18.3983 16.358C18.3815 16.4213 18.3625 16.4839 18.3414 16.5458C18.3202 16.6081 18.2971 16.6696 18.2721 16.7305C18.2458 16.7947 18.2179 16.8584 18.1887 16.9214C18.1626 16.9776 18.1353 17.0323 18.1063 17.0855C18.0777 17.1382 18.0473 17.19 18.0151 17.2406C17.9833 17.2908 17.9499 17.3395 17.915 17.3867C17.8802 17.4337 17.8438 17.4795 17.8058 17.5239C17.7679 17.5681 17.7284 17.611 17.6873 17.6523C17.6463 17.6936 17.6036 17.7335 17.5595 17.772C17.5153 17.8106 17.4695 17.8475 17.4221 17.8832C17.3747 17.9188 17.3257 17.953 17.275 17.9858C17.2243 18.0185 17.172 18.0499 17.1181 18.0799C17.0641 18.1099 17.0084 18.1386 16.9512 18.1658C16.8929 18.1935 16.8339 18.2195 16.7741 18.2436C16.7122 18.2685 16.6497 18.2917 16.5866 18.3132C16.4583 18.3569 16.3228 18.3953 16.1803 18.4285C16.0317 18.4628 15.8818 18.4908 15.7309 18.5126C15.6728 18.521 15.5395 18.529 15.3485 18.5364L14.6205 18.5566L12.5567 18.5834L10.3966 18.5868L9.54827 18.5778L8.99743 18.5606L8.59124 18.5321C8.46513 18.5215 8.34784 18.5096 8.23795 18.4962C8.12806 18.4828 8.02572 18.4679 7.92943 18.4511C7.83819 18.4353 7.74751 18.4164 7.65753 18.3946C7.57549 18.3746 7.49429 18.3513 7.41413 18.3248C7.33684 18.2992 7.26295 18.2709 7.19106 18.2398C7.11917 18.2088 7.04933 18.1747 6.98016 18.1376C6.91099 18.1004 6.84254 18.06 6.77332 18.016C6.7211 17.9828 6.67062 17.9493 6.62204 17.9137C6.57346 17.8781 6.52653 17.8426 6.48134 17.8054C6.43615 17.7682 6.39276 17.7299 6.35091 17.6905C6.30933 17.6512 6.26919 17.6105 6.23054 17.5684C6.19203 17.5264 6.15521 17.4831 6.11988 17.4384C6.08441 17.3934 6.05062 17.3472 6.01856 17.2997C5.98603 17.2515 5.95526 17.2022 5.92629 17.1518C5.89702 17.101 5.86918 17.0484 5.84274 16.9942C5.81585 16.9389 5.79076 16.8828 5.76751 16.8259C5.74389 16.768 5.7215 16.7082 5.70045 16.6465C5.65834 16.523 5.62137 16.3915 5.58922 16.2513C5.55707 16.1111 5.52965 15.9622 5.50644 15.8036C5.48323 15.6449 5.46454 15.4767 5.44965 15.2979C5.43866 15.1661 5.42993 14.961 5.42325 14.7022L5.40929 13.7817L5.41442 11.4352L5.45483 9.19306L5.48565 8.40307L5.5031 8.14195C5.50916 8.07222 5.51543 8.02056 5.52185 7.98955C5.543 7.88751 5.56431 7.79256 5.58634 7.70368C5.60692 7.61982 5.62982 7.53655 5.655 7.45396C5.67893 7.37601 5.70414 7.30298 5.7311 7.23381C5.7571 7.16681 5.78607 7.101 5.81794 7.03658C5.84906 6.97393 5.88248 6.91395 5.91879 6.85556C5.95509 6.79718 5.99428 6.74054 6.037 6.68421C6.07972 6.62787 6.12573 6.57226 6.1758 6.51588C6.22587 6.4595 6.27994 6.40255 6.33858 6.34385C6.40693 6.27512 6.47809 6.20925 6.55189 6.14641C6.62158 6.08712 6.69425 6.03144 6.76962 5.97957C6.84372 5.92822 6.91972 5.88252 6.99885 5.84051C7.07798 5.79851 7.16025 5.76056 7.24677 5.72641C7.3333 5.69226 7.42419 5.66171 7.52048 5.63398C7.62163 5.60561 7.7239 5.5814 7.82704 5.56142C7.93549 5.54016 8.05067 5.52162 8.17366 5.50545C8.29664 5.48927 8.42749 5.4753 8.56737 5.46319C8.66493 5.45476 8.83306 5.44727 9.05443 5.44095L9.86012 5.42503L12.0034 5.41194L12.003 5.4124Z" fill="url(#paint2_radial)"/>
<defs>
<radialGradient id="paint0_radial" cx="0" cy="0" r="1" gradientUnits="userSpaceOnUse" gradientTransform="translate(6.53955 21.1663) rotate(-9.53101) scale(33.8768 20.563)">
<stop stop-color="#FED576"/>
<stop offset="0.263" stop-color="#F47133"/>
<stop offset="0.609" stop-color="#BC3081"/>
<stop offset="1" stop-color="#4C63D2"/>
</radialGradient>
<radialGradient id="paint1_radial" cx="0" cy="0" r="1" gradientUnits="userSpaceOnUse" gradientTransform="translate(6.53937 21.1664) rotate(-9.53102) scale(33.8767 20.563)">
<stop stop-color="#FED576"/>
<stop offset="0.263" stop-color="#F47133"/>
<stop offset="0.609" stop-color="#BC3081"/>
<stop offset="1" stop-color="#4C63D2"/>
</radialGradient>
<radialGradient id="paint2_radial" cx="0" cy="0" r="1" gradientUnits="userSpaceOnUse" gradientTransform="translate(6.53952 21.1663) rotate(-9.53101) scale(33.8768 20.563)">
<stop stop-color="#FED576"/>
<stop offset="0.263" stop-color="#F47133"/>
<stop offset="0.609" stop-color="#BC3081"/>
<stop offset="1" stop-color="#4C63D2"/>
</radialGradient>
</defs>
</svg>
