<svg xmlns="http://www.w3.org/2000/svg" viewBox="0 0 416.6 201.26"><defs><style>.cls-1{fill:#fff;stroke:transperent;stroke-miterlimit:10;}.cls-2{fill:#4b618a;}</style></defs><title>2Ресурс 2</title><g id="Слой_2" data-name="Слой 2"><g id="Слой_1-2" data-name="Слой 1"><rect class="cls-1" x="0.5" y="0.5" width="415.6" height="200.26"/><path class="cls-2" d="M46.38,176.31a13,13,0,0,1-2.48.73,14.56,14.56,0,0,1-3.08.31,13.94,13.94,0,0,1-4.4-.68,10,10,0,0,1-3.58-2,9.5,9.5,0,0,1-2.4-3.48,12.59,12.59,0,0,1-.88-4.91,13.18,13.18,0,0,1,1-5.4,10.66,10.66,0,0,1,2.62-3.65,10.31,10.31,0,0,1,3.62-2.07,12.66,12.66,0,0,1,4-.66,15.14,15.14,0,0,1,2.81.26,12.82,12.82,0,0,1,2.45.71v4.34a11.74,11.74,0,0,0-2.1-.69,10.7,10.7,0,0,0-2.4-.26,7.71,7.71,0,0,0-2.45.39A5.64,5.64,0,0,0,37,160.46a5.87,5.87,0,0,0-1.42,2.26,9.5,9.5,0,0,0-.53,3.39,8.82,8.82,0,0,0,.4,2.7A6.21,6.21,0,0,0,36.65,171a5.66,5.66,0,0,0,2,1.45,6.74,6.74,0,0,0,2.85.55,10.92,10.92,0,0,0,2.65-.29,15.57,15.57,0,0,0,2.25-.72Z"/><path class="cls-2" d="M59.59,177.35a11.73,11.73,0,0,1-5.44-1.12,7.85,7.85,0,0,1-3.26-3A8,8,0,0,1,50,171a11.85,11.85,0,0,1-.28-2.7V155h5.33v12.75a10.53,10.53,0,0,0,.15,1.9,5.08,5.08,0,0,0,.48,1.38,3.38,3.38,0,0,0,1.52,1.47,5.37,5.37,0,0,0,2.36.48,5.27,5.27,0,0,0,2.47-.54,3.42,3.42,0,0,0,1.54-1.64,6.87,6.87,0,0,0,.51-2.94V155h5.33v13.31a9.86,9.86,0,0,1-.92,4.47,7.25,7.25,0,0,1-1.34,1.88,7.84,7.84,0,0,1-1.93,1.44,10.13,10.13,0,0,1-2.52.92A13.76,13.76,0,0,1,59.59,177.35Z"/><path class="cls-2" d="M83.69,170.47a1.69,1.69,0,0,0-.39-1.15,3.06,3.06,0,0,0-1-.75,8.74,8.74,0,0,0-1.5-.53L79,167.59a21.93,21.93,0,0,1-2.25-.73,6.79,6.79,0,0,1-1.9-1.09,4.94,4.94,0,0,1-1.31-1.7,5.88,5.88,0,0,1-.48-2.51,7.17,7.17,0,0,1,.65-3.15,6.36,6.36,0,0,1,1.77-2.22,7.47,7.47,0,0,1,2.58-1.3,10.94,10.94,0,0,1,3.12-.43,21.21,21.21,0,0,1,3.75.32,19.39,19.39,0,0,1,3.17.85V160c-.49-.17-1-.32-1.56-.46s-1.1-.27-1.67-.37-1.12-.19-1.67-.26a12.61,12.61,0,0,0-1.57-.1A6.08,6.08,0,0,0,80,159a3.26,3.26,0,0,0-1.06.48,1.75,1.75,0,0,0-.58.7,1.92,1.92,0,0,0-.18.82,1.83,1.83,0,0,0,.39,1.21,2.81,2.81,0,0,0,1.09.77,11.34,11.34,0,0,0,1.46.48l1.49.37c.75.18,1.5.4,2.25.65a7.23,7.23,0,0,1,2,1.07,5.32,5.32,0,0,1,1.47,1.77,6,6,0,0,1,.58,2.78,7.1,7.1,0,0,1-.7,3.22,6.39,6.39,0,0,1-2,2.28,8.46,8.46,0,0,1-3,1.35,15.8,15.8,0,0,1-3.83.44,19.06,19.06,0,0,1-3.72-.33A12.56,12.56,0,0,1,73,176.2v-4.29a16.84,16.84,0,0,0,3.24.88A17.27,17.27,0,0,0,79,173a10.63,10.63,0,0,0,1.84-.15,5,5,0,0,0,1.48-.46,2.66,2.66,0,0,0,1-.8A1.86,1.86,0,0,0,83.69,170.47Z"/><path class="cls-2" d="M105.86,176.76a13.79,13.79,0,0,1-2.15.43,19.54,19.54,0,0,1-2.32.16,9.91,9.91,0,0,1-4.49-.89,5.08,5.08,0,0,1-2.46-2.55,8.24,8.24,0,0,1-.52-3.24V159.38H89.85V155h4.07v-6.09h5.33V155h6.3v4.38h-6.3V170a3.66,3.66,0,0,0,.38,1.87,3,3,0,0,0,2.68,1,12.53,12.53,0,0,0,1.83-.14,16.22,16.22,0,0,0,1.72-.37Z"/><path class="cls-2" d="M129.78,165.9a13.92,13.92,0,0,1-.76,4.68,10.26,10.26,0,0,1-2.2,3.62,9.79,9.79,0,0,1-3.45,2.33,12,12,0,0,1-4.52.82,12.27,12.27,0,0,1-4.59-.82,9.74,9.74,0,0,1-3.46-2.33,10.18,10.18,0,0,1-2.16-3.62,14.67,14.67,0,0,1,0-9.35,10.24,10.24,0,0,1,2.19-3.62,9.66,9.66,0,0,1,3.45-2.33,11.86,11.86,0,0,1,4.52-.82,12.17,12.17,0,0,1,4.6.82,9.66,9.66,0,0,1,3.45,2.33,10.35,10.35,0,0,1,2.17,3.62A13.86,13.86,0,0,1,129.78,165.9Zm-5.51,0a10.44,10.44,0,0,0-.4-3.05,6.59,6.59,0,0,0-1.13-2.23,4.53,4.53,0,0,0-1.73-1.35,5.34,5.34,0,0,0-2.2-.45,5.24,5.24,0,0,0-2.17.45,4.58,4.58,0,0,0-1.72,1.35,6.59,6.59,0,0,0-1.13,2.23,11.87,11.87,0,0,0,0,6.11,6.37,6.37,0,0,0,1.14,2.22,4.76,4.76,0,0,0,1.73,1.34,5.15,5.15,0,0,0,2.19.46,5,5,0,0,0,2.18-.46,4.7,4.7,0,0,0,1.71-1.34,6.53,6.53,0,0,0,1.13-2.22A10.46,10.46,0,0,0,124.27,165.9Z"/><path class="cls-2" d="M161.55,163.52c0-.46,0-.9-.05-1.3a5.8,5.8,0,0,0-.16-1.06,3,3,0,0,0-1-1.6,3.21,3.21,0,0,0-2-.63,5.34,5.34,0,0,0-1.44.21,7.42,7.42,0,0,0-1.47.57,8.25,8.25,0,0,0-1.39.9,7.94,7.94,0,0,0-1.21,1.18v15h-5.32V163.52c0-.46,0-.9-.05-1.3a5.8,5.8,0,0,0-.16-1.06,3,3,0,0,0-.95-1.6,3.18,3.18,0,0,0-2-.63,5.21,5.21,0,0,0-1.43.21,7.27,7.27,0,0,0-1.48.57,8.67,8.67,0,0,0-1.39.9,7.87,7.87,0,0,0-1.2,1.18v15h-5.33V155h4.4l.5,3h.09a7.55,7.55,0,0,1,1.19-1.32,8.08,8.08,0,0,1,1.63-1.15,9.38,9.38,0,0,1,2-.8,8.71,8.71,0,0,1,2.31-.3,7.9,7.9,0,0,1,3.87.95,6.11,6.11,0,0,1,2.62,3h.09a10.69,10.69,0,0,1,1.41-1.59,8.57,8.57,0,0,1,1.72-1.24,9.78,9.78,0,0,1,2-.81,9.18,9.18,0,0,1,2.33-.29,7.51,7.51,0,0,1,3.92,1,6.36,6.36,0,0,1,2.44,2.62,4.89,4.89,0,0,1,.38.93,8.19,8.19,0,0,1,.26,1.13,13.37,13.37,0,0,1,.15,1.4c0,.51,0,1.09,0,1.75v13.51h-5.32Z"/><path class="cls-2" d="M181.35,170.47a1.69,1.69,0,0,0-.39-1.15,3.11,3.11,0,0,0-1.05-.75,8.33,8.33,0,0,0-1.49-.53l-1.77-.45a21.93,21.93,0,0,1-2.25-.73,6.93,6.93,0,0,1-1.9-1.09,4.91,4.91,0,0,1-1.3-1.7,5.88,5.88,0,0,1-.48-2.51,7,7,0,0,1,.65-3.15,6.22,6.22,0,0,1,1.76-2.22,7.61,7.61,0,0,1,2.59-1.3,10.92,10.92,0,0,1,3.11-.43,21.25,21.25,0,0,1,3.76.32,19.67,19.67,0,0,1,3.17.85V160c-.5-.17-1-.32-1.57-.46s-1.1-.27-1.66-.37-1.12-.19-1.67-.26a12.65,12.65,0,0,0-1.58-.1,6,6,0,0,0-1.59.18,3.16,3.16,0,0,0-1.06.48,1.78,1.78,0,0,0-.59.7,1.91,1.91,0,0,0-.17.82,1.83,1.83,0,0,0,.39,1.21,2.74,2.74,0,0,0,1.09.77,10.85,10.85,0,0,0,1.46.48l1.48.37c.75.18,1.5.4,2.25.65a7.16,7.16,0,0,1,2,1.07,5.44,5.44,0,0,1,1.47,1.77,6,6,0,0,1,.57,2.78,7,7,0,0,1-.7,3.22,6.36,6.36,0,0,1-1.94,2.28,8.46,8.46,0,0,1-3,1.35,15.8,15.8,0,0,1-3.83.44,19.06,19.06,0,0,1-3.72-.33,12.49,12.49,0,0,1-2.74-.82v-4.29a16.84,16.84,0,0,0,3.24.88,17.39,17.39,0,0,0,2.77.24,10.63,10.63,0,0,0,1.84-.15,4.89,4.89,0,0,0,1.47-.46,2.7,2.7,0,0,0,1-.8A1.86,1.86,0,0,0,181.35,170.47Z"/><path class="cls-2" d="M224.27,160.73a21.53,21.53,0,0,1-1.27,5.55,18.62,18.62,0,0,1-2.4,4.41c.77.78,1.49,1.52,2.16,2.23l1.81,1.87,1.3,1.35.62.64h-7.6c-.25-.32-.54-.67-.85-1l-1.26-1.38a16.27,16.27,0,0,1-4.68,2.24,18.14,18.14,0,0,1-5,.73,11.62,11.62,0,0,1-3.78-.58,8.43,8.43,0,0,1-2.92-1.62,7.14,7.14,0,0,1-1.89-2.54,7.93,7.93,0,0,1-.68-3.31,7.51,7.51,0,0,1,.49-2.8,8.4,8.4,0,0,1,1.29-2.26,10.74,10.74,0,0,1,1.86-1.83,22.19,22.19,0,0,1,2.21-1.52c-.57-.55-1.1-1.11-1.59-1.66a12.86,12.86,0,0,1-1.27-1.74,8.08,8.08,0,0,1-.84-1.9,8,8,0,0,1,.3-5.22,6.3,6.3,0,0,1,1.76-2.3,8,8,0,0,1,2.8-1.43,13,13,0,0,1,3.74-.5,14.39,14.39,0,0,1,3.75.45,8,8,0,0,1,2.82,1.34,5.89,5.89,0,0,1,1.79,2.2,7,7,0,0,1,.63,3.05,7.7,7.7,0,0,1-.47,2.75,8.14,8.14,0,0,1-1.28,2.22,11,11,0,0,1-1.87,1.8c-.7.53-1.44,1-2.2,1.52l2.52,2.59,3,3.08a14.36,14.36,0,0,0,1.22-2.9,16.61,16.61,0,0,0,.64-3.51ZM207.54,173a10.53,10.53,0,0,0,3.11-.47,10.31,10.31,0,0,0,3-1.46c-.57-.58-1.14-1.18-1.73-1.77l-1.73-1.78-1.67-1.7c-.55-.55-1.07-1.07-1.54-1.56a15.25,15.25,0,0,0-1.47,1,7.35,7.35,0,0,0-1.15,1.15,5.07,5.07,0,0,0-.77,1.3,4,4,0,0,0-.28,1.51,3.64,3.64,0,0,0,.34,1.64,3.3,3.3,0,0,0,.91,1.17,3.79,3.79,0,0,0,1.35.71A5.53,5.53,0,0,0,207.54,173Zm-2.41-19.67a3.71,3.71,0,0,0,.22,1.26,4.56,4.56,0,0,0,.63,1.16,8.62,8.62,0,0,0,1,1.16c.4.39.84.82,1.34,1.28.52-.33,1-.67,1.46-1a7.74,7.74,0,0,0,1.17-1.1,4.69,4.69,0,0,0,.77-1.25,3.58,3.58,0,0,0,.28-1.43,2.63,2.63,0,0,0-.9-2.09,3.75,3.75,0,0,0-2.54-.79,4.45,4.45,0,0,0-1.47.23,3.3,3.3,0,0,0-1.08.6,2.6,2.6,0,0,0-.89,2Z"/><path class="cls-2" d="M238.23,176.78V144.23h5.32v32.55Z"/><path class="cls-2" d="M269.38,165.9a13.68,13.68,0,0,1-.76,4.68,10.24,10.24,0,0,1-2.19,3.62,9.79,9.79,0,0,1-3.45,2.33,12.09,12.09,0,0,1-4.52.82,12.36,12.36,0,0,1-4.6-.82,9.61,9.61,0,0,1-3.45-2.33,10.2,10.2,0,0,1-2.17-3.62,13.92,13.92,0,0,1-.75-4.68,13.62,13.62,0,0,1,.76-4.67,10.24,10.24,0,0,1,2.19-3.62,9.75,9.75,0,0,1,3.45-2.33,11.89,11.89,0,0,1,4.52-.82,12.17,12.17,0,0,1,4.6.82,9.49,9.49,0,0,1,3.45,2.33,10.06,10.06,0,0,1,2.17,3.62A13.86,13.86,0,0,1,269.38,165.9Zm-5.5,0a10.42,10.42,0,0,0-.41-3.05,6.58,6.58,0,0,0-1.12-2.23,4.61,4.61,0,0,0-1.73-1.35,5.39,5.39,0,0,0-2.21-.45,5.24,5.24,0,0,0-2.17.45,4.66,4.66,0,0,0-1.72,1.35,6.58,6.58,0,0,0-1.12,2.23,11.59,11.59,0,0,0,0,6.11,6.53,6.53,0,0,0,1.13,2.22,4.8,4.8,0,0,0,1.74,1.34,5.42,5.42,0,0,0,4.37,0,4.7,4.7,0,0,0,1.71-1.34,6.52,6.52,0,0,0,1.12-2.22A10.45,10.45,0,0,0,263.88,165.9Z"/><path class="cls-2" d="M287.23,177.35c0-.3,0-.67,0-1.12s0-.81.06-1.11h0a9.85,9.85,0,0,1-1.14.8,11.61,11.61,0,0,1-1.41.72,9.74,9.74,0,0,1-1.68.52,9.93,9.93,0,0,1-1.89.19,9.62,9.62,0,0,1-3.38-.62,7.91,7.91,0,0,1-2.94-2,10,10,0,0,1-2.07-3.43,14.41,14.41,0,0,1-.78-5,15,15,0,0,1,.8-5.16,11.16,11.16,0,0,1,2.12-3.7,8.78,8.78,0,0,1,6.59-3,7.33,7.33,0,0,1,3.55.84,7.85,7.85,0,0,1,2.54,2.15h.09l.22-2.45h4.68v22.19a14.85,14.85,0,0,1-.31,3.28,8.78,8.78,0,0,1-.93,2.43,8.21,8.21,0,0,1-1.83,2.16,10.53,10.53,0,0,1-2.54,1.53,15.25,15.25,0,0,1-3.13.91,21,21,0,0,1-3.62.3c-.72,0-1.43,0-2.12-.08s-1.33-.13-1.94-.22-1.16-.21-1.67-.34a13.28,13.28,0,0,1-1.27-.39v-4.34a19.21,19.21,0,0,0,3.12.75,22.11,22.11,0,0,0,3.43.26,9.51,9.51,0,0,0,5.53-1.38,4.81,4.81,0,0,0,2-4.2Zm-4.76-4.25a5.44,5.44,0,0,0,1.53-.21,6.7,6.7,0,0,0,1.32-.51,6.84,6.84,0,0,0,1.91-1.46v-9.74a7.19,7.19,0,0,0-2.11-1.68,5.72,5.72,0,0,0-2.68-.7,4.89,4.89,0,0,0-1,.12,4,4,0,0,0-1.11.44,4.6,4.6,0,0,0-1.07.84,5,5,0,0,0-.89,1.34,9.32,9.32,0,0,0-.62,1.93,12.66,12.66,0,0,0-.23,2.61,12.51,12.51,0,0,0,.31,2.94,6.59,6.59,0,0,0,.94,2.2,4.18,4.18,0,0,0,1.57,1.39A4.54,4.54,0,0,0,282.47,173.1Z"/><path class="cls-2" d="M297.39,144.23H303V150h-5.6Zm.14,10.77h5.33v21.78h-5.33Z"/><path class="cls-2" d="M317.47,170.47a1.65,1.65,0,0,0-.4-1.15,3.06,3.06,0,0,0-1-.75,8.45,8.45,0,0,0-1.5-.53l-1.76-.45a21.93,21.93,0,0,1-2.25-.73,6.93,6.93,0,0,1-1.9-1.09,4.79,4.79,0,0,1-1.3-1.7,5.88,5.88,0,0,1-.49-2.51,7,7,0,0,1,.66-3.15,6.22,6.22,0,0,1,1.76-2.22,7.43,7.43,0,0,1,2.59-1.3,10.92,10.92,0,0,1,3.11-.43,21.13,21.13,0,0,1,3.75.32,19.39,19.39,0,0,1,3.17.85V160c-.49-.17-1-.32-1.56-.46s-1.1-.27-1.66-.37-1.12-.19-1.68-.26a12.49,12.49,0,0,0-1.57-.1,6.14,6.14,0,0,0-1.6.18,3.2,3.2,0,0,0-1.05.48,1.78,1.78,0,0,0-.59.7,1.92,1.92,0,0,0-.18.82,1.78,1.78,0,0,0,.4,1.21,2.74,2.74,0,0,0,1.09.77,10.85,10.85,0,0,0,1.46.48l1.48.37c.75.18,1.5.4,2.25.65a7.1,7.1,0,0,1,2,1.07,5.47,5.47,0,0,1,1.48,1.77,6,6,0,0,1,.57,2.78,7,7,0,0,1-.7,3.22,6.36,6.36,0,0,1-1.94,2.28,8.46,8.46,0,0,1-3,1.35,15.82,15.82,0,0,1-3.84.44,19.06,19.06,0,0,1-3.72-.33,12.56,12.56,0,0,1-2.73-.82v-4.29a16.84,16.84,0,0,0,3.24.88,17.37,17.37,0,0,0,2.76.24,10.75,10.75,0,0,0,1.85-.15,4.89,4.89,0,0,0,1.47-.46,2.7,2.7,0,0,0,1-.8A1.86,1.86,0,0,0,317.47,170.47Z"/><path class="cls-2" d="M339.63,176.76a13.89,13.89,0,0,1-2.14.43,19.85,19.85,0,0,1-2.33.16,9.94,9.94,0,0,1-4.49-.89,5.08,5.08,0,0,1-2.46-2.55,8.45,8.45,0,0,1-.51-3.24V159.38h-4.07V155h4.07v-6.09H333V155h6.3v4.38H333V170a3.55,3.55,0,0,0,.39,1.87,3,3,0,0,0,2.67,1,12.32,12.32,0,0,0,1.83-.14,16.22,16.22,0,0,0,1.72-.37Z"/><path class="cls-2" d="M342.78,144.23h5.6V150h-5.6Zm.14,10.77h5.32v21.78h-5.32Z"/><path class="cls-2" d="M368.9,176.31a12.86,12.86,0,0,1-2.47.73,14.56,14.56,0,0,1-3.08.31,14,14,0,0,1-4.41-.68,10,10,0,0,1-3.57-2,9.64,9.64,0,0,1-2.41-3.48,12.78,12.78,0,0,1-.87-4.91,13,13,0,0,1,1-5.4,10.53,10.53,0,0,1,2.62-3.65,10.31,10.31,0,0,1,3.62-2.07,12.66,12.66,0,0,1,4-.66,15.14,15.14,0,0,1,2.81.26,13,13,0,0,1,2.45.71v4.34a11.59,11.59,0,0,0-2.11-.69,10.68,10.68,0,0,0-2.39-.26,7.71,7.71,0,0,0-2.45.39,5.64,5.64,0,0,0-2.07,1.25,6,6,0,0,0-1.43,2.26,9.73,9.73,0,0,0-.53,3.39,8.82,8.82,0,0,0,.41,2.7,6.06,6.06,0,0,0,1.18,2.17,5.66,5.66,0,0,0,2,1.45A6.73,6.73,0,0,0,364,173a11,11,0,0,0,2.66-.29,15.05,15.05,0,0,0,2.24-.72Z"/><path class="cls-2" d="M382.14,170.47a1.69,1.69,0,0,0-.39-1.15,3.06,3.06,0,0,0-1-.75,8.74,8.74,0,0,0-1.5-.53l-1.76-.45a21.93,21.93,0,0,1-2.25-.73,6.79,6.79,0,0,1-1.9-1.09,4.94,4.94,0,0,1-1.31-1.7,5.88,5.88,0,0,1-.48-2.51,7.17,7.17,0,0,1,.65-3.15,6.36,6.36,0,0,1,1.77-2.22,7.47,7.47,0,0,1,2.58-1.3,10.94,10.94,0,0,1,3.12-.43,21.21,21.21,0,0,1,3.75.32,19.39,19.39,0,0,1,3.17.85V160c-.49-.17-1-.32-1.56-.46s-1.1-.27-1.67-.37-1.12-.19-1.67-.26a12.61,12.61,0,0,0-1.57-.1,6.08,6.08,0,0,0-1.6.18,3.16,3.16,0,0,0-1.06.48,1.75,1.75,0,0,0-.58.7,1.92,1.92,0,0,0-.18.82,1.83,1.83,0,0,0,.39,1.21,2.81,2.81,0,0,0,1.09.77,11.34,11.34,0,0,0,1.46.48l1.49.37c.75.18,1.5.4,2.25.65a7.23,7.23,0,0,1,2,1.07,5.32,5.32,0,0,1,1.47,1.77,6,6,0,0,1,.57,2.78,7.1,7.1,0,0,1-.69,3.22,6.39,6.39,0,0,1-1.95,2.28,8.46,8.46,0,0,1-3,1.35,15.8,15.8,0,0,1-3.83.44,19.06,19.06,0,0,1-3.72-.33,12.56,12.56,0,0,1-2.73-.82v-4.29a17,17,0,0,0,3.23.88,17.49,17.49,0,0,0,2.77.24,10.63,10.63,0,0,0,1.84-.15,5,5,0,0,0,1.48-.46,2.66,2.66,0,0,0,1-.8A1.86,1.86,0,0,0,382.14,170.47Z"/><polygon class="cls-2" points="276.41 23.64 276.41 60.22 235.72 60.22 235.72 23.64 206.9 23.64 206.9 24.29 172.75 81.96 138.24 23.67 138.24 23.64 109.42 23.64 109.42 128.94 138.24 128.94 138.24 77.59 161.72 117.24 183.78 117.24 206.9 78.21 206.9 128.94 235.72 128.94 235.72 85.71 276.41 85.71 276.41 128.94 305.23 128.94 305.23 23.64 276.41 23.64"/></g></g></svg>