<svg width="24" height="24" viewBox="0 0 24 24" fill="none" xmlns="http://www.w3.org/2000/svg">
<path d="M16.6746 13.8462C17.0581 13.4716 17.1129 12.9365 16.7842 12.4013C16.5102 11.9732 16.0172 11.7592 15.4693 11.8662C15.2502 11.9197 15.0311 12.0268 14.8119 12.1873C13.1136 13.311 10.8127 13.2575 9.11434 12.1338C9.00477 12.0803 8.8952 12.0268 8.78563 11.9732C8.183 11.7057 7.58038 11.8127 7.25167 12.3478C6.86818 12.883 6.92296 13.4716 7.41602 13.9532C7.52558 14.0602 7.63515 14.1137 7.68994 14.2207L7.74473 14.2743C8.51171 14.8629 9.44305 15.2375 10.6483 15.398L9.93611 16.0937C9.33348 16.6823 8.67607 17.3244 8.07344 17.913C7.90908 18.0736 7.68994 18.3411 7.68994 18.7157C7.68994 19.1973 7.96387 19.6789 8.45693 19.893C8.62128 20 8.78563 20 8.94998 20C9.22391 20 9.55261 19.893 9.77175 19.6254C10.5935 18.8227 11.2509 18.1806 11.9083 17.5385C11.9631 17.485 11.9631 17.485 11.9631 17.485C11.9631 17.485 12.0179 17.485 12.0179 17.5385C12.4562 18.0201 12.9493 18.4482 13.3875 18.9298C13.6067 19.1438 13.8258 19.3579 14.0449 19.5719C14.3189 19.8395 14.538 19.9465 14.8667 19.9465C15.3598 20 15.9076 19.6789 16.1268 19.1973C16.3459 18.7692 16.2363 18.2341 15.8528 17.913C15.305 17.3779 14.7571 16.7893 14.1545 16.2542L13.2232 15.3445C13.7162 15.291 14.2641 15.184 14.7571 14.9699C15.5789 14.7023 16.1815 14.3278 16.6746 13.8462Z" fill="#EF9002"/>
<path d="M11.9631 12.3478C14.3189 12.3478 16.2363 10.5284 16.2363 8.22742C16.2363 7.10367 15.798 6.03345 14.9763 5.23077C14.1545 4.4281 13.1136 4 12.0179 4C9.66218 4 7.79951 5.87291 7.74473 8.1204C7.74473 9.24414 8.183 10.2609 9.00477 11.0635C9.77175 11.9197 10.8127 12.3478 11.9631 12.3478ZM10.7579 6.99666C11.0866 6.67559 11.5249 6.51505 11.9631 6.51505C12.9492 6.51505 13.6615 7.26421 13.6615 8.17391C13.6615 9.13712 12.8945 9.83277 11.9631 9.83277C10.977 9.83277 10.2648 9.08361 10.2648 8.17391C10.2648 7.74582 10.4292 7.31773 10.7579 6.99666Z" fill="#EF9002"/>
<path d="M16.6746 13.8462C17.0581 13.4716 17.1129 12.9365 16.7842 12.4013C16.5102 11.9732 16.0172 11.7592 15.4693 11.8662C15.2502 11.9197 15.0311 12.0268 14.8119 12.1873C13.1136 13.311 10.8127 13.2575 9.11434 12.1338C9.00477 12.0803 8.8952 12.0268 8.78563 11.9732C8.183 11.7057 7.58038 11.8127 7.25167 12.3478C6.86818 12.883 6.92296 13.4716 7.41602 13.9532C7.52558 14.0602 7.63515 14.1137 7.68994 14.2207L7.74473 14.2743C8.51171 14.8629 9.44305 15.2375 10.6483 15.398L9.93611 16.0937C9.33348 16.6823 8.67607 17.3244 8.07344 17.913C7.90908 18.0736 7.68994 18.3411 7.68994 18.7157C7.68994 19.1973 7.96387 19.6789 8.45693 19.893C8.62128 20 8.78563 20 8.94998 20C9.22391 20 9.55261 19.893 9.77175 19.6254C10.5935 18.8227 11.2509 18.1806 11.9083 17.5385C11.9631 17.485 11.9631 17.485 11.9631 17.485C11.9631 17.485 12.0179 17.485 12.0179 17.5385C12.4562 18.0201 12.9493 18.4482 13.3875 18.9298C13.6067 19.1438 13.8258 19.3579 14.0449 19.5719C14.3189 19.8395 14.538 19.9465 14.8667 19.9465C15.3598 20 15.9076 19.6789 16.1268 19.1973C16.3459 18.7692 16.2363 18.2341 15.8528 17.913C15.305 17.3779 14.7571 16.7893 14.1545 16.2542L13.2232 15.3445C13.7162 15.291 14.2641 15.184 14.7571 14.9699C15.5789 14.7023 16.1815 14.3278 16.6746 13.8462Z" fill="#EF9002"/>
</svg>
