<svg width="24" height="24" viewBox="0 0 24 24" fill="none" xmlns="http://www.w3.org/2000/svg">
<path d="M22.5993 16.7671C22.5993 16.6849 22.5134 16.6849 22.5134 16.6027C22.1696 15.9452 21.3961 15.1233 20.3648 14.2192C19.8492 13.8082 19.5914 13.4795 19.4195 13.3151C19.1617 12.9863 19.1617 12.7397 19.2476 12.411C19.3336 12.1644 19.6773 11.7534 20.2789 11.0137C20.6227 10.6027 20.7945 10.3562 21.0524 10.1096C22.3415 8.46575 22.9431 7.39725 22.7712 6.9041L22.6853 6.82192C22.5993 6.73973 22.5134 6.65754 22.3415 6.65754C22.1696 6.57535 21.9118 6.57535 21.654 6.65754H18.3882C18.3023 6.65754 18.3022 6.65754 18.1304 6.65754C18.0444 6.65754 17.9585 6.65754 17.9585 6.65754H17.8726H17.7866L17.7007 6.73972C17.6147 6.82191 17.6147 6.82191 17.6147 6.9041C17.2709 7.80821 16.8412 8.54794 16.4115 9.36986C16.1537 9.78082 15.8959 10.1918 15.6381 10.5206C15.3803 10.8493 15.2084 11.0959 15.0365 11.2603C14.8646 11.4247 14.6927 11.5068 14.6068 11.6712C14.5208 11.7534 14.349 11.8356 14.349 11.7534C14.263 11.7534 14.1771 11.7534 14.1771 11.6712C14.0911 11.589 14.0052 11.5068 13.9193 11.4247C13.8333 11.3425 13.8333 11.1781 13.7474 11.0137C13.7474 10.8493 13.7474 10.6849 13.7474 10.6027C13.7474 10.5205 13.7474 10.274 13.7474 10.1096C13.7474 9.86302 13.7474 9.69863 13.7474 9.61644C13.7474 9.36986 13.7474 9.0411 13.7474 8.71233C13.7474 8.38357 13.7474 8.13698 13.7474 7.9726C13.7474 7.80822 13.7474 7.56164 13.7474 7.39726C13.7474 7.15068 13.7474 6.98629 13.7474 6.9041C13.7474 6.82191 13.6614 6.65753 13.6614 6.57534C13.5755 6.49315 13.4895 6.41095 13.4036 6.32876C13.3177 6.24657 13.1458 6.24657 13.0598 6.16438C12.6301 6.08219 12.1145 6 11.5129 6C10.1378 6 9.19249 6.08219 8.84873 6.24658C8.67684 6.32877 8.50496 6.41096 8.41902 6.57534C8.24714 6.73972 8.24713 6.82192 8.33307 6.82192C8.76278 6.90411 9.10655 7.06849 9.27843 7.31506L9.36438 7.47946C9.45032 7.56165 9.4503 7.72602 9.53625 7.9726C9.62219 8.21917 9.62219 8.46575 9.62219 8.79452C9.62219 9.28767 9.62219 9.78082 9.62219 10.1096C9.62219 10.5206 9.53625 10.7671 9.53625 11.0137C9.53625 11.2603 9.45032 11.4247 9.36438 11.5069C9.27844 11.6712 9.27843 11.7534 9.19249 11.7534C9.19249 11.7534 9.19248 11.8356 9.10654 11.8356C9.0206 11.8356 8.93466 11.9178 8.76278 11.9178C8.67684 11.9178 8.50496 11.8356 8.41902 11.7534C8.24714 11.6712 8.07526 11.5069 7.98931 11.3425C7.81743 11.1781 7.64554 10.9315 7.47366 10.6027C7.30178 10.274 7.04394 9.94521 6.87206 9.45205L6.7002 9.12329C6.61425 8.95891 6.44237 8.63014 6.27049 8.21918C6.09861 7.80822 5.92672 7.47946 5.75484 7.0685C5.6689 6.90411 5.58297 6.82191 5.49702 6.73972H5.41108C5.41108 6.73972 5.32513 6.65754 5.23918 6.65754C5.15324 6.65754 5.06731 6.57534 4.98137 6.57534H1.88748C1.54372 6.57534 1.37184 6.65753 1.2859 6.73972L1.19995 6.82192C1.19995 6.82192 1.19995 6.90411 1.19995 6.9863C1.19995 7.06849 1.19996 7.15068 1.2859 7.31506C1.7156 8.30136 2.23125 9.28767 2.7469 10.274C3.26254 11.1781 3.7782 12 4.12196 12.5753C4.55167 13.1507 4.89543 13.726 5.32513 14.2192C5.75484 14.7123 6.01266 15.0411 6.0986 15.2055C6.27048 15.3699 6.35642 15.4521 6.44236 15.5342L6.7002 15.7808C6.87208 15.9452 7.1299 16.1918 7.47366 16.4384C7.81743 16.6849 8.24713 16.9315 8.67683 17.1781C9.10654 17.4247 9.6222 17.5891 10.1378 17.7534C10.7394 17.9178 11.2551 18 11.7707 17.9178H13.0598C13.3177 17.9178 13.4896 17.8356 13.6614 17.6712L13.7474 17.589C13.7474 17.5068 13.8333 17.5069 13.8333 17.4247C13.8333 17.3425 13.8333 17.2603 13.8333 17.0959C13.8333 16.7671 13.8333 16.5206 13.9193 16.274C14.0052 16.0274 14.0052 15.863 14.0911 15.6986C14.1771 15.5343 14.263 15.4521 14.349 15.3699C14.4349 15.2877 14.5209 15.2055 14.5209 15.2055H14.6068C14.7787 15.1233 15.0365 15.2055 15.2084 15.3699C15.4662 15.5342 15.724 15.7808 15.8959 16.0274C16.0678 16.274 16.3256 16.5206 16.6694 16.8493C17.0131 17.1781 17.271 17.4247 17.4428 17.5069L17.7007 17.6712C17.8725 17.7534 18.0444 17.8356 18.3023 17.9178C18.5601 18 18.7319 18 18.9038 18L21.8259 17.9178C22.0837 17.9178 22.3415 17.8356 22.5134 17.7534C22.6853 17.6712 22.7712 17.589 22.7712 17.4247C22.7712 17.3425 22.7712 17.1781 22.7712 17.0959C22.5993 16.9315 22.5993 16.8493 22.5993 16.7671Z" fill="#0157BC"/>
</svg>
